G75*
%MOIN*%
%OFA0B0*%
%FSLAX25Y25*%
%IPPOS*%
%LPD*%
%AMOC8*
5,1,8,0,0,1.08239X$1,22.5*
%
%ADD10C,0.00600*%
%ADD11C,0.00000*%
%ADD12C,0.08858*%
%ADD13C,0.06909*%
%ADD14R,0.07677X0.02323*%
%ADD15C,0.01161*%
%ADD16C,0.01000*%
%ADD17R,0.05906X0.05118*%
%ADD18C,0.06000*%
%ADD19C,0.02578*%
%ADD20C,0.01200*%
%ADD21C,0.00800*%
D10*
X0046966Y0052337D02*
X0052499Y0046830D01*
X0058902Y0042364D01*
X0065981Y0039074D01*
X0073523Y0037060D01*
X0081300Y0036381D01*
X0089077Y0037060D01*
X0096619Y0039074D01*
X0103698Y0042364D01*
X0110101Y0046830D01*
X0115634Y0052337D01*
X0120130Y0058719D01*
X0123453Y0065783D01*
X0125503Y0073315D01*
X0126218Y0081089D01*
X0125576Y0088869D01*
X0123597Y0096421D01*
X0120341Y0103515D01*
X0115905Y0109939D01*
X0110424Y0115498D01*
X0104063Y0120024D01*
X0104063Y0120024D01*
X0100905Y0121700D01*
X0100637Y0121700D01*
X0100363Y0121974D01*
X0100014Y0122140D01*
X0099913Y0122424D01*
X0099700Y0122637D01*
X0099700Y0123025D01*
X0099570Y0123390D01*
X0099700Y0123662D01*
X0099700Y0130500D01*
X0092767Y0135700D01*
X0083082Y0135700D01*
X0084319Y0135188D01*
X0085818Y0133689D01*
X0086629Y0131730D01*
X0086629Y0130957D01*
X0089364Y0128970D01*
X0089364Y0128970D01*
X0091461Y0126084D01*
X0091461Y0126084D01*
X0092564Y0122690D01*
X0092564Y0103361D01*
X0095275Y0103361D01*
X0095802Y0102834D01*
X0095802Y0102600D01*
X0097447Y0102600D01*
X0097447Y0102972D01*
X0097974Y0103499D01*
X0104626Y0103499D01*
X0105153Y0102972D01*
X0105153Y0097108D01*
X0104626Y0096581D01*
X0098647Y0096581D01*
X0098647Y0096419D01*
X0101000Y0096419D01*
X0101000Y0092860D01*
X0101600Y0092860D01*
X0101600Y0096419D01*
X0104424Y0096419D01*
X0104755Y0096330D01*
X0105051Y0096159D01*
X0105293Y0095917D01*
X0105464Y0095621D01*
X0105553Y0095290D01*
X0105553Y0092860D01*
X0101600Y0092860D01*
X0101600Y0092260D01*
X0105553Y0092260D01*
X0105553Y0089830D01*
X0105464Y0089499D01*
X0105293Y0089203D01*
X0105051Y0088961D01*
X0104755Y0088789D01*
X0104424Y0088701D01*
X0101600Y0088701D01*
X0101600Y0092260D01*
X0101000Y0092260D01*
X0101000Y0088701D01*
X0098662Y0088701D01*
X0098647Y0088559D01*
X0098647Y0088090D01*
X0098600Y0088043D01*
X0098600Y0081096D01*
X0099489Y0080207D01*
X0099489Y0078393D01*
X0098207Y0077111D01*
X0096393Y0077111D01*
X0095111Y0078393D01*
X0095111Y0079415D01*
X0094935Y0079239D01*
X0087193Y0079239D01*
X0086325Y0080106D01*
X0086325Y0082494D01*
X0087193Y0083361D01*
X0094935Y0083361D01*
X0095802Y0082494D01*
X0095802Y0080898D01*
X0096000Y0081096D01*
X0096000Y0088175D01*
X0095950Y0088237D01*
X0096000Y0088703D01*
X0096000Y0089172D01*
X0096047Y0089220D01*
X0096047Y0095552D01*
X0095802Y0095797D01*
X0095802Y0095106D01*
X0094935Y0094239D01*
X0090841Y0094239D01*
X0089964Y0093361D01*
X0094935Y0093361D01*
X0095802Y0092494D01*
X0095802Y0090106D01*
X0094935Y0089239D01*
X0087193Y0089239D01*
X0086325Y0090106D01*
X0086325Y0090797D01*
X0084000Y0088472D01*
X0084000Y0073656D01*
X0078944Y0068600D01*
X0078182Y0067839D01*
X0067085Y0067839D01*
X0060362Y0074562D01*
X0059600Y0075324D01*
X0059600Y0081162D01*
X0051650Y0089111D01*
X0050393Y0089111D01*
X0049111Y0090393D01*
X0049111Y0092207D01*
X0050393Y0093489D01*
X0052207Y0093489D01*
X0053489Y0092207D01*
X0053489Y0090949D01*
X0061000Y0083438D01*
X0061000Y0105650D01*
X0060720Y0105650D01*
X0059900Y0106470D01*
X0059900Y0112130D01*
X0060720Y0112950D01*
X0064880Y0112950D01*
X0065700Y0112130D01*
X0065700Y0106470D01*
X0064880Y0105650D01*
X0063600Y0105650D01*
X0063600Y0090696D01*
X0064393Y0091489D01*
X0066207Y0091489D01*
X0066798Y0090898D01*
X0066798Y0092494D01*
X0067665Y0093361D01*
X0075143Y0093361D01*
X0075111Y0093393D01*
X0075111Y0093684D01*
X0073511Y0094239D01*
X0067665Y0094239D01*
X0066798Y0095106D01*
X0066798Y0097494D01*
X0067665Y0098361D01*
X0075407Y0098361D01*
X0076275Y0097494D01*
X0076275Y0096370D01*
X0076393Y0096489D01*
X0078207Y0096489D01*
X0079489Y0095207D01*
X0079489Y0093393D01*
X0078585Y0092489D01*
X0079207Y0092489D01*
X0080000Y0091696D01*
X0080000Y0105184D01*
X0080884Y0106716D01*
X0080884Y0106716D01*
X0082006Y0107364D01*
X0081900Y0107470D01*
X0081900Y0113130D01*
X0082720Y0113950D01*
X0086880Y0113950D01*
X0087700Y0113130D01*
X0087700Y0107470D01*
X0086880Y0106650D01*
X0085869Y0106650D01*
X0085350Y0105750D01*
X0085350Y0105750D01*
X0085350Y0105750D01*
X0084050Y0105000D01*
X0083300Y0105000D01*
X0083119Y0104976D01*
X0082805Y0104795D01*
X0082624Y0104481D01*
X0082600Y0104300D01*
X0082600Y0090749D01*
X0086613Y0094761D01*
X0086670Y0094761D01*
X0086325Y0095106D01*
X0086325Y0097494D01*
X0087193Y0098361D01*
X0092164Y0098361D01*
X0091287Y0099239D01*
X0086852Y0099239D01*
X0086325Y0099766D01*
X0086325Y0102834D01*
X0086852Y0103361D01*
X0089564Y0103361D01*
X0089564Y0120906D01*
X0089462Y0122199D01*
X0088663Y0124658D01*
X0087143Y0126750D01*
X0085837Y0127699D01*
X0085818Y0127651D01*
X0084319Y0126152D01*
X0082360Y0125341D01*
X0080240Y0125341D01*
X0078281Y0126152D01*
X0076782Y0127651D01*
X0075971Y0129610D01*
X0075971Y0131730D01*
X0076782Y0133689D01*
X0078281Y0135188D01*
X0079518Y0135700D01*
X0071743Y0135700D01*
X0062900Y0130394D01*
X0062900Y0123662D01*
X0063030Y0123390D01*
X0062900Y0123025D01*
X0062900Y0122637D01*
X0062687Y0122424D01*
X0062586Y0122140D01*
X0062237Y0121974D01*
X0061963Y0121700D01*
X0061695Y0121700D01*
X0058537Y0120024D01*
X0052176Y0115498D01*
X0046695Y0109939D01*
X0042259Y0103515D01*
X0039003Y0096421D01*
X0037023Y0088869D01*
X0036382Y0081089D01*
X0037097Y0073315D01*
X0039147Y0065783D01*
X0042470Y0058719D01*
X0046966Y0052337D01*
X0046756Y0052634D02*
X0054958Y0052634D01*
X0055524Y0052400D02*
X0057076Y0052400D01*
X0058509Y0052994D01*
X0059606Y0054091D01*
X0060200Y0055524D01*
X0060200Y0057076D01*
X0059606Y0058509D01*
X0058509Y0059606D01*
X0057076Y0060200D01*
X0055524Y0060200D01*
X0054091Y0059606D01*
X0052994Y0058509D01*
X0052400Y0057076D01*
X0052400Y0055524D01*
X0052994Y0054091D01*
X0054091Y0052994D01*
X0055524Y0052400D01*
X0053852Y0053233D02*
X0046334Y0053233D01*
X0045913Y0053832D02*
X0053253Y0053832D01*
X0052853Y0054430D02*
X0045491Y0054430D01*
X0045070Y0055029D02*
X0052605Y0055029D01*
X0052400Y0055627D02*
X0044648Y0055627D01*
X0044226Y0056226D02*
X0052400Y0056226D01*
X0052400Y0056824D02*
X0043805Y0056824D01*
X0043383Y0057423D02*
X0052544Y0057423D01*
X0052792Y0058021D02*
X0042961Y0058021D01*
X0042540Y0058620D02*
X0053104Y0058620D01*
X0053703Y0059218D02*
X0042235Y0059218D01*
X0041953Y0059817D02*
X0047619Y0059817D01*
X0047020Y0060065D02*
X0048453Y0059471D01*
X0050005Y0059471D01*
X0051438Y0060065D01*
X0052535Y0061162D01*
X0053129Y0062595D01*
X0053129Y0064147D01*
X0052535Y0065580D01*
X0051438Y0066677D01*
X0050005Y0067271D01*
X0048453Y0067271D01*
X0047020Y0066677D01*
X0045923Y0065580D01*
X0045329Y0064147D01*
X0045329Y0062595D01*
X0045923Y0061162D01*
X0047020Y0060065D01*
X0046669Y0060415D02*
X0041672Y0060415D01*
X0041390Y0061014D02*
X0046071Y0061014D01*
X0045736Y0061612D02*
X0041109Y0061612D01*
X0040827Y0062211D02*
X0045488Y0062211D01*
X0045329Y0062809D02*
X0040545Y0062809D01*
X0040264Y0063408D02*
X0045329Y0063408D01*
X0045329Y0064006D02*
X0039982Y0064006D01*
X0039701Y0064605D02*
X0045519Y0064605D01*
X0045767Y0065203D02*
X0039419Y0065203D01*
X0039141Y0065802D02*
X0046144Y0065802D01*
X0046743Y0066400D02*
X0038978Y0066400D01*
X0038816Y0066999D02*
X0047796Y0066999D01*
X0050662Y0066999D02*
X0123784Y0066999D01*
X0123947Y0067597D02*
X0038653Y0067597D01*
X0038490Y0068196D02*
X0066728Y0068196D01*
X0066129Y0068794D02*
X0038327Y0068794D01*
X0038164Y0069393D02*
X0065531Y0069393D01*
X0064932Y0069991D02*
X0038001Y0069991D01*
X0037838Y0070590D02*
X0064334Y0070590D01*
X0063735Y0071188D02*
X0037675Y0071188D01*
X0037513Y0071787D02*
X0063137Y0071787D01*
X0062538Y0072385D02*
X0037350Y0072385D01*
X0037187Y0072984D02*
X0061940Y0072984D01*
X0061341Y0073582D02*
X0037072Y0073582D01*
X0037017Y0074181D02*
X0060743Y0074181D01*
X0060144Y0074779D02*
X0036962Y0074779D01*
X0036907Y0075378D02*
X0059600Y0075378D01*
X0059600Y0075976D02*
X0036852Y0075976D01*
X0036797Y0076575D02*
X0059600Y0076575D01*
X0059600Y0077173D02*
X0036742Y0077173D01*
X0036687Y0077772D02*
X0059600Y0077772D01*
X0059600Y0078370D02*
X0036632Y0078370D01*
X0036577Y0078969D02*
X0059600Y0078969D01*
X0059600Y0079568D02*
X0036522Y0079568D01*
X0036467Y0080166D02*
X0059600Y0080166D01*
X0059600Y0080765D02*
X0036412Y0080765D01*
X0036404Y0081363D02*
X0059398Y0081363D01*
X0058800Y0081962D02*
X0036454Y0081962D01*
X0036503Y0082560D02*
X0058201Y0082560D01*
X0057603Y0083159D02*
X0036552Y0083159D01*
X0036602Y0083757D02*
X0057004Y0083757D01*
X0056406Y0084356D02*
X0036651Y0084356D01*
X0036701Y0084954D02*
X0055807Y0084954D01*
X0055209Y0085553D02*
X0036750Y0085553D01*
X0036799Y0086151D02*
X0054610Y0086151D01*
X0054012Y0086750D02*
X0036849Y0086750D01*
X0036898Y0087348D02*
X0053413Y0087348D01*
X0052815Y0087947D02*
X0036947Y0087947D01*
X0036997Y0088545D02*
X0052216Y0088545D01*
X0050361Y0089144D02*
X0037095Y0089144D01*
X0037252Y0089742D02*
X0049762Y0089742D01*
X0049164Y0090341D02*
X0037409Y0090341D01*
X0037566Y0090939D02*
X0049111Y0090939D01*
X0049111Y0091538D02*
X0037723Y0091538D01*
X0037880Y0092136D02*
X0049111Y0092136D01*
X0049639Y0092735D02*
X0038037Y0092735D01*
X0038193Y0093333D02*
X0050238Y0093333D01*
X0052362Y0093333D02*
X0061000Y0093333D01*
X0061000Y0092735D02*
X0052961Y0092735D01*
X0053489Y0092136D02*
X0061000Y0092136D01*
X0061000Y0091538D02*
X0053489Y0091538D01*
X0053499Y0090939D02*
X0061000Y0090939D01*
X0061000Y0090341D02*
X0054098Y0090341D01*
X0054696Y0089742D02*
X0061000Y0089742D01*
X0061000Y0089144D02*
X0055295Y0089144D01*
X0055893Y0088545D02*
X0061000Y0088545D01*
X0061000Y0087947D02*
X0056492Y0087947D01*
X0057090Y0087348D02*
X0061000Y0087348D01*
X0061000Y0086750D02*
X0057689Y0086750D01*
X0058287Y0086151D02*
X0061000Y0086151D01*
X0061000Y0085553D02*
X0058886Y0085553D01*
X0059484Y0084954D02*
X0061000Y0084954D01*
X0061000Y0084356D02*
X0060083Y0084356D01*
X0060681Y0083757D02*
X0061000Y0083757D01*
X0063600Y0090939D02*
X0063844Y0090939D01*
X0063600Y0091538D02*
X0066798Y0091538D01*
X0066798Y0092136D02*
X0063600Y0092136D01*
X0063600Y0092735D02*
X0067038Y0092735D01*
X0067637Y0093333D02*
X0063600Y0093333D01*
X0063600Y0093932D02*
X0074396Y0093932D01*
X0076275Y0096924D02*
X0080000Y0096924D01*
X0080000Y0096326D02*
X0078370Y0096326D01*
X0078968Y0095727D02*
X0080000Y0095727D01*
X0080000Y0095129D02*
X0079489Y0095129D01*
X0079489Y0094530D02*
X0080000Y0094530D01*
X0080000Y0093932D02*
X0079489Y0093932D01*
X0079429Y0093333D02*
X0080000Y0093333D01*
X0080000Y0092735D02*
X0078830Y0092735D01*
X0079559Y0092136D02*
X0080000Y0092136D01*
X0082600Y0092136D02*
X0083988Y0092136D01*
X0084586Y0092735D02*
X0082600Y0092735D01*
X0082600Y0093333D02*
X0085185Y0093333D01*
X0085783Y0093932D02*
X0082600Y0093932D01*
X0082600Y0094530D02*
X0086382Y0094530D01*
X0086325Y0095129D02*
X0082600Y0095129D01*
X0082600Y0095727D02*
X0086325Y0095727D01*
X0086325Y0096326D02*
X0082600Y0096326D01*
X0082600Y0096924D02*
X0086325Y0096924D01*
X0086354Y0097523D02*
X0082600Y0097523D01*
X0082600Y0098121D02*
X0086953Y0098121D01*
X0086773Y0099318D02*
X0082600Y0099318D01*
X0082600Y0098720D02*
X0091805Y0098720D01*
X0090534Y0093932D02*
X0096047Y0093932D01*
X0096047Y0094530D02*
X0095227Y0094530D01*
X0095802Y0095129D02*
X0096047Y0095129D01*
X0095872Y0095727D02*
X0095802Y0095727D01*
X0096047Y0093333D02*
X0094963Y0093333D01*
X0095562Y0092735D02*
X0096047Y0092735D01*
X0096047Y0092136D02*
X0095802Y0092136D01*
X0095802Y0091538D02*
X0096047Y0091538D01*
X0096047Y0090939D02*
X0095802Y0090939D01*
X0095802Y0090341D02*
X0096047Y0090341D01*
X0096047Y0089742D02*
X0095439Y0089742D01*
X0096000Y0089144D02*
X0084672Y0089144D01*
X0085270Y0089742D02*
X0086689Y0089742D01*
X0086325Y0090341D02*
X0085869Y0090341D01*
X0087193Y0088361D02*
X0086325Y0087494D01*
X0086325Y0085106D01*
X0087193Y0084239D01*
X0094935Y0084239D01*
X0095802Y0085106D01*
X0095802Y0087494D01*
X0094935Y0088361D01*
X0087193Y0088361D01*
X0086778Y0087947D02*
X0084000Y0087947D01*
X0084000Y0087348D02*
X0086325Y0087348D01*
X0086325Y0086750D02*
X0084000Y0086750D01*
X0084000Y0086151D02*
X0086325Y0086151D01*
X0086325Y0085553D02*
X0084000Y0085553D01*
X0084000Y0084954D02*
X0086477Y0084954D01*
X0087076Y0084356D02*
X0084000Y0084356D01*
X0084000Y0083757D02*
X0096000Y0083757D01*
X0096000Y0083159D02*
X0095138Y0083159D01*
X0095736Y0082560D02*
X0096000Y0082560D01*
X0096000Y0081962D02*
X0095802Y0081962D01*
X0095802Y0081363D02*
X0096000Y0081363D01*
X0095111Y0078969D02*
X0084000Y0078969D01*
X0084000Y0079568D02*
X0086864Y0079568D01*
X0086325Y0080166D02*
X0084000Y0080166D01*
X0084000Y0080765D02*
X0086325Y0080765D01*
X0086325Y0081363D02*
X0084000Y0081363D01*
X0084000Y0081962D02*
X0086325Y0081962D01*
X0086391Y0082560D02*
X0084000Y0082560D01*
X0084000Y0083159D02*
X0086990Y0083159D01*
X0087193Y0078361D02*
X0086325Y0077494D01*
X0086325Y0075106D01*
X0087193Y0074239D01*
X0094935Y0074239D01*
X0095802Y0075106D01*
X0095802Y0077494D01*
X0094935Y0078361D01*
X0087193Y0078361D01*
X0086603Y0077772D02*
X0084000Y0077772D01*
X0084000Y0078370D02*
X0095134Y0078370D01*
X0095524Y0077772D02*
X0095732Y0077772D01*
X0095802Y0077173D02*
X0096331Y0077173D01*
X0095802Y0076575D02*
X0101246Y0076575D01*
X0101844Y0077173D02*
X0098269Y0077173D01*
X0098868Y0077772D02*
X0102443Y0077772D01*
X0103041Y0078370D02*
X0099466Y0078370D01*
X0099489Y0078969D02*
X0103501Y0078969D01*
X0103310Y0078639D02*
X0100461Y0075790D01*
X0096971Y0073775D01*
X0095039Y0073257D01*
X0094935Y0073361D01*
X0087193Y0073361D01*
X0086325Y0072494D01*
X0086325Y0070106D01*
X0087193Y0069239D01*
X0094935Y0069239D01*
X0095802Y0070106D01*
X0095802Y0070633D01*
X0098025Y0071229D01*
X0098025Y0071229D01*
X0102138Y0073604D01*
X0105496Y0076962D01*
X0107871Y0081074D01*
X0107871Y0081075D01*
X0109100Y0085662D01*
X0109100Y0104650D01*
X0109880Y0104650D01*
X0110700Y0105470D01*
X0110700Y0111130D01*
X0109880Y0111950D01*
X0105720Y0111950D01*
X0104900Y0111130D01*
X0104900Y0105470D01*
X0105720Y0104650D01*
X0106500Y0104650D01*
X0106500Y0088036D01*
X0106368Y0086021D01*
X0105325Y0082129D01*
X0103310Y0078639D01*
X0103846Y0079568D02*
X0099489Y0079568D01*
X0099489Y0080166D02*
X0104192Y0080166D01*
X0104537Y0080765D02*
X0098931Y0080765D01*
X0098600Y0081363D02*
X0104883Y0081363D01*
X0105228Y0081962D02*
X0098600Y0081962D01*
X0098600Y0082560D02*
X0105440Y0082560D01*
X0105601Y0083159D02*
X0098600Y0083159D01*
X0098600Y0083757D02*
X0105761Y0083757D01*
X0105922Y0084356D02*
X0098600Y0084356D01*
X0098600Y0084954D02*
X0106082Y0084954D01*
X0106242Y0085553D02*
X0098600Y0085553D01*
X0098600Y0086151D02*
X0106376Y0086151D01*
X0106416Y0086750D02*
X0098600Y0086750D01*
X0098600Y0087348D02*
X0106455Y0087348D01*
X0106494Y0087947D02*
X0098600Y0087947D01*
X0098647Y0088545D02*
X0106500Y0088545D01*
X0106500Y0089144D02*
X0105234Y0089144D01*
X0105529Y0089742D02*
X0106500Y0089742D01*
X0106500Y0090341D02*
X0105553Y0090341D01*
X0105553Y0090939D02*
X0106500Y0090939D01*
X0106500Y0091538D02*
X0105553Y0091538D01*
X0105553Y0092136D02*
X0106500Y0092136D01*
X0106500Y0092735D02*
X0101600Y0092735D01*
X0101600Y0093333D02*
X0101000Y0093333D01*
X0101000Y0093932D02*
X0101600Y0093932D01*
X0101600Y0094530D02*
X0101000Y0094530D01*
X0101000Y0095129D02*
X0101600Y0095129D01*
X0101600Y0095727D02*
X0101000Y0095727D01*
X0101000Y0096326D02*
X0101600Y0096326D01*
X0104762Y0096326D02*
X0106500Y0096326D01*
X0106500Y0096924D02*
X0104969Y0096924D01*
X0105153Y0097523D02*
X0106500Y0097523D01*
X0106500Y0098121D02*
X0105153Y0098121D01*
X0105153Y0098720D02*
X0106500Y0098720D01*
X0106500Y0099318D02*
X0105153Y0099318D01*
X0105153Y0099917D02*
X0106500Y0099917D01*
X0106500Y0100515D02*
X0105153Y0100515D01*
X0105153Y0101114D02*
X0106500Y0101114D01*
X0106500Y0101712D02*
X0105153Y0101712D01*
X0105153Y0102311D02*
X0106500Y0102311D01*
X0106500Y0102909D02*
X0105153Y0102909D01*
X0106500Y0103508D02*
X0092564Y0103508D01*
X0092564Y0104106D02*
X0106500Y0104106D01*
X0105665Y0104705D02*
X0102935Y0104705D01*
X0102880Y0104650D02*
X0103700Y0105470D01*
X0103700Y0111130D01*
X0102880Y0111950D01*
X0102331Y0111950D01*
X0102483Y0114387D01*
X0103489Y0115393D01*
X0103489Y0117207D01*
X0102207Y0118489D01*
X0100393Y0118489D01*
X0099111Y0117207D01*
X0099111Y0115393D01*
X0099892Y0114612D01*
X0099726Y0111950D01*
X0098720Y0111950D01*
X0097900Y0111130D01*
X0097900Y0105470D01*
X0098720Y0104650D01*
X0102880Y0104650D01*
X0103533Y0105303D02*
X0105067Y0105303D01*
X0104900Y0105902D02*
X0103700Y0105902D01*
X0103700Y0106501D02*
X0104900Y0106501D01*
X0104900Y0107099D02*
X0103700Y0107099D01*
X0103700Y0107698D02*
X0104900Y0107698D01*
X0104900Y0108296D02*
X0103700Y0108296D01*
X0103700Y0108895D02*
X0104900Y0108895D01*
X0104900Y0109493D02*
X0103700Y0109493D01*
X0103700Y0110092D02*
X0104900Y0110092D01*
X0104900Y0110690D02*
X0103700Y0110690D01*
X0103541Y0111289D02*
X0105059Y0111289D01*
X0105657Y0111887D02*
X0102943Y0111887D01*
X0102364Y0112486D02*
X0113394Y0112486D01*
X0112804Y0113084D02*
X0102402Y0113084D01*
X0102439Y0113683D02*
X0112214Y0113683D01*
X0111624Y0114281D02*
X0102476Y0114281D01*
X0102975Y0114880D02*
X0111033Y0114880D01*
X0110443Y0115478D02*
X0103489Y0115478D01*
X0103489Y0116077D02*
X0109611Y0116077D01*
X0108769Y0116675D02*
X0103489Y0116675D01*
X0103422Y0117274D02*
X0107928Y0117274D01*
X0107087Y0117872D02*
X0102823Y0117872D01*
X0102225Y0118471D02*
X0106246Y0118471D01*
X0105405Y0119069D02*
X0092564Y0119069D01*
X0092564Y0118471D02*
X0100375Y0118471D01*
X0099777Y0117872D02*
X0092564Y0117872D01*
X0092564Y0117274D02*
X0099178Y0117274D01*
X0099111Y0116675D02*
X0092564Y0116675D01*
X0092564Y0116077D02*
X0099111Y0116077D01*
X0099111Y0115478D02*
X0092564Y0115478D01*
X0092564Y0114880D02*
X0099625Y0114880D01*
X0099871Y0114281D02*
X0092564Y0114281D01*
X0092564Y0113683D02*
X0099834Y0113683D01*
X0099796Y0113084D02*
X0092564Y0113084D01*
X0092564Y0112486D02*
X0099759Y0112486D01*
X0098657Y0111887D02*
X0092564Y0111887D01*
X0092564Y0111289D02*
X0098059Y0111289D01*
X0097900Y0110690D02*
X0092564Y0110690D01*
X0092564Y0110092D02*
X0097900Y0110092D01*
X0097900Y0109493D02*
X0092564Y0109493D01*
X0092564Y0108895D02*
X0097900Y0108895D01*
X0097900Y0108296D02*
X0092564Y0108296D01*
X0092564Y0107698D02*
X0097900Y0107698D01*
X0097900Y0107099D02*
X0092564Y0107099D01*
X0092564Y0106501D02*
X0097900Y0106501D01*
X0097900Y0105902D02*
X0092564Y0105902D01*
X0092564Y0105303D02*
X0098067Y0105303D01*
X0098665Y0104705D02*
X0092564Y0104705D01*
X0089564Y0104705D02*
X0082753Y0104705D01*
X0082600Y0104106D02*
X0089564Y0104106D01*
X0089564Y0103508D02*
X0082600Y0103508D01*
X0082600Y0102909D02*
X0086400Y0102909D01*
X0086325Y0102311D02*
X0082600Y0102311D01*
X0082600Y0101712D02*
X0086325Y0101712D01*
X0086325Y0101114D02*
X0082600Y0101114D01*
X0082600Y0100515D02*
X0086325Y0100515D01*
X0086325Y0099917D02*
X0082600Y0099917D01*
X0080000Y0099917D02*
X0076502Y0099917D01*
X0076547Y0099993D02*
X0076675Y0100472D01*
X0076675Y0101019D01*
X0071817Y0101019D01*
X0071817Y0098839D01*
X0075042Y0098839D01*
X0075520Y0098967D01*
X0075949Y0099214D01*
X0076299Y0099565D01*
X0076547Y0099993D01*
X0076675Y0100515D02*
X0080000Y0100515D01*
X0080000Y0101114D02*
X0071817Y0101114D01*
X0071817Y0101019D02*
X0071817Y0101581D01*
X0071255Y0101581D01*
X0071255Y0101019D01*
X0066398Y0101019D01*
X0066398Y0100472D01*
X0066526Y0099993D01*
X0066773Y0099565D01*
X0067124Y0099214D01*
X0067552Y0098967D01*
X0068031Y0098839D01*
X0071255Y0098839D01*
X0071255Y0101019D01*
X0071817Y0101019D01*
X0071817Y0100515D02*
X0071255Y0100515D01*
X0071255Y0099917D02*
X0071817Y0099917D01*
X0071817Y0099318D02*
X0071255Y0099318D01*
X0071255Y0101114D02*
X0063600Y0101114D01*
X0063600Y0101712D02*
X0066398Y0101712D01*
X0066398Y0101581D02*
X0071255Y0101581D01*
X0071255Y0103761D01*
X0068031Y0103761D01*
X0067552Y0103633D01*
X0067124Y0103386D01*
X0066773Y0103035D01*
X0066526Y0102607D01*
X0066398Y0102128D01*
X0066398Y0101581D01*
X0066447Y0102311D02*
X0063600Y0102311D01*
X0063600Y0102909D02*
X0066701Y0102909D01*
X0067335Y0103508D02*
X0063600Y0103508D01*
X0063600Y0104106D02*
X0080000Y0104106D01*
X0080000Y0103508D02*
X0075737Y0103508D01*
X0075949Y0103386D02*
X0075520Y0103633D01*
X0075042Y0103761D01*
X0071817Y0103761D01*
X0071817Y0101581D01*
X0076675Y0101581D01*
X0076675Y0102128D01*
X0076547Y0102607D01*
X0076299Y0103035D01*
X0075949Y0103386D01*
X0076372Y0102909D02*
X0080000Y0102909D01*
X0080000Y0102311D02*
X0076626Y0102311D01*
X0076675Y0101712D02*
X0080000Y0101712D01*
X0080000Y0099318D02*
X0076053Y0099318D01*
X0075647Y0098121D02*
X0080000Y0098121D01*
X0080000Y0097523D02*
X0076246Y0097523D01*
X0080000Y0098720D02*
X0063600Y0098720D01*
X0063600Y0099318D02*
X0067020Y0099318D01*
X0066570Y0099917D02*
X0063600Y0099917D01*
X0063600Y0100515D02*
X0066398Y0100515D01*
X0067425Y0098121D02*
X0063600Y0098121D01*
X0063600Y0097523D02*
X0066826Y0097523D01*
X0066798Y0096924D02*
X0063600Y0096924D01*
X0063600Y0096326D02*
X0066798Y0096326D01*
X0066798Y0095727D02*
X0063600Y0095727D01*
X0063600Y0095129D02*
X0066798Y0095129D01*
X0067373Y0094530D02*
X0063600Y0094530D01*
X0061000Y0094530D02*
X0038507Y0094530D01*
X0038350Y0093932D02*
X0061000Y0093932D01*
X0061000Y0095129D02*
X0038664Y0095129D01*
X0038821Y0095727D02*
X0061000Y0095727D01*
X0061000Y0096326D02*
X0038978Y0096326D01*
X0039234Y0096924D02*
X0061000Y0096924D01*
X0061000Y0097523D02*
X0039509Y0097523D01*
X0039783Y0098121D02*
X0061000Y0098121D01*
X0061000Y0098720D02*
X0040058Y0098720D01*
X0040333Y0099318D02*
X0061000Y0099318D01*
X0061000Y0099917D02*
X0040607Y0099917D01*
X0040882Y0100515D02*
X0061000Y0100515D01*
X0061000Y0101114D02*
X0041157Y0101114D01*
X0041432Y0101712D02*
X0061000Y0101712D01*
X0061000Y0102311D02*
X0041706Y0102311D01*
X0041981Y0102909D02*
X0061000Y0102909D01*
X0061000Y0103508D02*
X0042256Y0103508D01*
X0042667Y0104106D02*
X0061000Y0104106D01*
X0061000Y0104705D02*
X0043081Y0104705D01*
X0043494Y0105303D02*
X0061000Y0105303D01*
X0060468Y0105902D02*
X0058132Y0105902D01*
X0057880Y0105650D02*
X0058700Y0106470D01*
X0058700Y0110887D01*
X0061233Y0114111D01*
X0062207Y0114111D01*
X0063489Y0115393D01*
X0063489Y0117207D01*
X0062207Y0118489D01*
X0060393Y0118489D01*
X0059111Y0117207D01*
X0059111Y0115618D01*
X0057015Y0112950D01*
X0053720Y0112950D01*
X0052900Y0112130D01*
X0052900Y0106470D01*
X0053720Y0105650D01*
X0057880Y0105650D01*
X0058700Y0106501D02*
X0059900Y0106501D01*
X0059900Y0107099D02*
X0058700Y0107099D01*
X0058700Y0107698D02*
X0059900Y0107698D01*
X0059900Y0108296D02*
X0058700Y0108296D01*
X0058700Y0108895D02*
X0059900Y0108895D01*
X0059900Y0109493D02*
X0058700Y0109493D01*
X0058700Y0110092D02*
X0059900Y0110092D01*
X0059900Y0110690D02*
X0058700Y0110690D01*
X0059016Y0111289D02*
X0059900Y0111289D01*
X0059900Y0111887D02*
X0059486Y0111887D01*
X0059956Y0112486D02*
X0060256Y0112486D01*
X0060427Y0113084D02*
X0074900Y0113084D01*
X0074900Y0113130D02*
X0074900Y0107470D01*
X0075720Y0106650D01*
X0079880Y0106650D01*
X0080700Y0107470D01*
X0080700Y0113130D01*
X0080218Y0113612D01*
X0081968Y0119111D01*
X0082207Y0119111D01*
X0083489Y0120393D01*
X0083489Y0122207D01*
X0082207Y0123489D01*
X0080393Y0123489D01*
X0079111Y0122207D01*
X0079111Y0120393D01*
X0079518Y0119986D01*
X0077597Y0113950D01*
X0075720Y0113950D01*
X0074900Y0113130D01*
X0074900Y0112486D02*
X0065344Y0112486D01*
X0065700Y0111887D02*
X0074900Y0111887D01*
X0074900Y0111289D02*
X0065700Y0111289D01*
X0065700Y0110690D02*
X0074900Y0110690D01*
X0074900Y0110092D02*
X0065700Y0110092D01*
X0065700Y0109493D02*
X0074900Y0109493D01*
X0074900Y0108895D02*
X0065700Y0108895D01*
X0065700Y0108296D02*
X0074900Y0108296D01*
X0074900Y0107698D02*
X0065700Y0107698D01*
X0065700Y0107099D02*
X0075271Y0107099D01*
X0071817Y0103508D02*
X0071255Y0103508D01*
X0071255Y0102909D02*
X0071817Y0102909D01*
X0071817Y0102311D02*
X0071255Y0102311D01*
X0071255Y0101712D02*
X0071817Y0101712D01*
X0065700Y0106501D02*
X0080760Y0106501D01*
X0080414Y0105902D02*
X0065132Y0105902D01*
X0063600Y0105303D02*
X0080069Y0105303D01*
X0080000Y0104705D02*
X0063600Y0104705D01*
X0060897Y0113683D02*
X0075453Y0113683D01*
X0077703Y0114281D02*
X0062377Y0114281D01*
X0062975Y0114880D02*
X0077893Y0114880D01*
X0078083Y0115478D02*
X0063489Y0115478D01*
X0063489Y0116077D02*
X0078274Y0116077D01*
X0078464Y0116675D02*
X0063489Y0116675D01*
X0063422Y0117274D02*
X0078655Y0117274D01*
X0078845Y0117872D02*
X0062823Y0117872D01*
X0062225Y0118471D02*
X0079036Y0118471D01*
X0079226Y0119069D02*
X0057195Y0119069D01*
X0056354Y0118471D02*
X0060375Y0118471D01*
X0059777Y0117872D02*
X0055513Y0117872D01*
X0054672Y0117274D02*
X0059178Y0117274D01*
X0059111Y0116675D02*
X0053831Y0116675D01*
X0052989Y0116077D02*
X0059111Y0116077D01*
X0059001Y0115478D02*
X0052157Y0115478D01*
X0051566Y0114880D02*
X0058531Y0114880D01*
X0058061Y0114281D02*
X0050976Y0114281D01*
X0050386Y0113683D02*
X0057590Y0113683D01*
X0057120Y0113084D02*
X0049796Y0113084D01*
X0049206Y0112486D02*
X0053256Y0112486D01*
X0052900Y0111887D02*
X0048616Y0111887D01*
X0048026Y0111289D02*
X0052900Y0111289D01*
X0052900Y0110690D02*
X0047436Y0110690D01*
X0046845Y0110092D02*
X0052900Y0110092D01*
X0052900Y0109493D02*
X0046387Y0109493D01*
X0045974Y0108895D02*
X0052900Y0108895D01*
X0052900Y0108296D02*
X0045560Y0108296D01*
X0045147Y0107698D02*
X0052900Y0107698D01*
X0052900Y0107099D02*
X0044734Y0107099D01*
X0044321Y0106501D02*
X0052900Y0106501D01*
X0053468Y0105902D02*
X0043907Y0105902D01*
X0058036Y0119668D02*
X0079416Y0119668D01*
X0079238Y0120266D02*
X0058994Y0120266D01*
X0060121Y0120865D02*
X0079111Y0120865D01*
X0079111Y0121463D02*
X0061249Y0121463D01*
X0062421Y0122062D02*
X0079111Y0122062D01*
X0079565Y0122660D02*
X0062900Y0122660D01*
X0062983Y0123259D02*
X0080163Y0123259D01*
X0082437Y0123259D02*
X0089118Y0123259D01*
X0088923Y0123857D02*
X0062900Y0123857D01*
X0062900Y0124456D02*
X0088729Y0124456D01*
X0088375Y0125054D02*
X0062900Y0125054D01*
X0062900Y0125653D02*
X0079487Y0125653D01*
X0078182Y0126251D02*
X0062900Y0126251D01*
X0062900Y0126850D02*
X0077584Y0126850D01*
X0076985Y0127448D02*
X0062900Y0127448D01*
X0062900Y0128047D02*
X0076618Y0128047D01*
X0076370Y0128645D02*
X0062900Y0128645D01*
X0062900Y0129244D02*
X0076123Y0129244D01*
X0075971Y0129842D02*
X0062900Y0129842D01*
X0062978Y0130441D02*
X0075971Y0130441D01*
X0075971Y0131039D02*
X0063976Y0131039D01*
X0064973Y0131638D02*
X0075971Y0131638D01*
X0076181Y0132237D02*
X0065971Y0132237D01*
X0066968Y0132835D02*
X0076429Y0132835D01*
X0076676Y0133434D02*
X0067966Y0133434D01*
X0068963Y0134032D02*
X0077125Y0134032D01*
X0077724Y0134631D02*
X0069961Y0134631D01*
X0070958Y0135229D02*
X0078381Y0135229D01*
X0084219Y0135229D02*
X0093395Y0135229D01*
X0094193Y0134631D02*
X0084876Y0134631D01*
X0085475Y0134032D02*
X0094991Y0134032D01*
X0095789Y0133434D02*
X0085924Y0133434D01*
X0086171Y0132835D02*
X0096587Y0132835D01*
X0097385Y0132237D02*
X0086419Y0132237D01*
X0086629Y0131638D02*
X0098183Y0131638D01*
X0098981Y0131039D02*
X0086629Y0131039D01*
X0087340Y0130441D02*
X0099700Y0130441D01*
X0099700Y0129842D02*
X0088163Y0129842D01*
X0088987Y0129244D02*
X0099700Y0129244D01*
X0099700Y0128645D02*
X0089600Y0128645D01*
X0089364Y0128970D02*
X0089364Y0128970D01*
X0090035Y0128047D02*
X0099700Y0128047D01*
X0099700Y0127448D02*
X0090470Y0127448D01*
X0090905Y0126850D02*
X0099700Y0126850D01*
X0099700Y0126251D02*
X0091339Y0126251D01*
X0091601Y0125653D02*
X0099700Y0125653D01*
X0099700Y0125054D02*
X0091796Y0125054D01*
X0091990Y0124456D02*
X0099700Y0124456D01*
X0099700Y0123857D02*
X0092185Y0123857D01*
X0092379Y0123259D02*
X0099617Y0123259D01*
X0099700Y0122660D02*
X0092564Y0122660D01*
X0092564Y0122062D02*
X0100179Y0122062D01*
X0101351Y0121463D02*
X0092564Y0121463D01*
X0092564Y0120865D02*
X0102479Y0120865D01*
X0103606Y0120266D02*
X0092564Y0120266D01*
X0092564Y0119668D02*
X0104564Y0119668D01*
X0101300Y0123300D02*
X0101300Y0131300D01*
X0093300Y0137300D01*
X0071300Y0137300D01*
X0061300Y0131300D01*
X0061300Y0123300D01*
X0080621Y0114880D02*
X0089564Y0114880D01*
X0089564Y0115478D02*
X0080812Y0115478D01*
X0081002Y0116077D02*
X0089564Y0116077D01*
X0089564Y0116675D02*
X0081193Y0116675D01*
X0081383Y0117274D02*
X0089564Y0117274D01*
X0089564Y0117872D02*
X0081574Y0117872D01*
X0081764Y0118471D02*
X0089564Y0118471D01*
X0089564Y0119069D02*
X0081954Y0119069D01*
X0082763Y0119668D02*
X0089564Y0119668D01*
X0089564Y0120266D02*
X0083362Y0120266D01*
X0083489Y0120865D02*
X0089564Y0120865D01*
X0089520Y0121463D02*
X0083489Y0121463D01*
X0083489Y0122062D02*
X0089473Y0122062D01*
X0089312Y0122660D02*
X0083035Y0122660D01*
X0083113Y0125653D02*
X0087940Y0125653D01*
X0087505Y0126251D02*
X0084418Y0126251D01*
X0085016Y0126850D02*
X0087005Y0126850D01*
X0086182Y0127448D02*
X0085615Y0127448D01*
X0089564Y0114281D02*
X0080431Y0114281D01*
X0080241Y0113683D02*
X0082453Y0113683D01*
X0081900Y0113084D02*
X0080700Y0113084D01*
X0080700Y0112486D02*
X0081900Y0112486D01*
X0081900Y0111887D02*
X0080700Y0111887D01*
X0080700Y0111289D02*
X0081900Y0111289D01*
X0081900Y0110690D02*
X0080700Y0110690D01*
X0080700Y0110092D02*
X0081900Y0110092D01*
X0081900Y0109493D02*
X0080700Y0109493D01*
X0080700Y0108895D02*
X0081900Y0108895D01*
X0081900Y0108296D02*
X0080700Y0108296D01*
X0080700Y0107698D02*
X0081900Y0107698D01*
X0081548Y0107099D02*
X0080329Y0107099D01*
X0084576Y0105303D02*
X0089564Y0105303D01*
X0089564Y0105902D02*
X0085437Y0105902D01*
X0085783Y0106501D02*
X0089564Y0106501D01*
X0089564Y0107099D02*
X0087329Y0107099D01*
X0087700Y0107698D02*
X0089564Y0107698D01*
X0089564Y0108296D02*
X0087700Y0108296D01*
X0087700Y0108895D02*
X0089564Y0108895D01*
X0089564Y0109493D02*
X0087700Y0109493D01*
X0087700Y0110092D02*
X0089564Y0110092D01*
X0089564Y0110690D02*
X0087700Y0110690D01*
X0087700Y0111289D02*
X0089564Y0111289D01*
X0089564Y0111887D02*
X0087700Y0111887D01*
X0087700Y0112486D02*
X0089564Y0112486D01*
X0089564Y0113084D02*
X0087700Y0113084D01*
X0087147Y0113683D02*
X0089564Y0113683D01*
X0095727Y0102909D02*
X0097447Y0102909D01*
X0105403Y0095727D02*
X0106500Y0095727D01*
X0106500Y0095129D02*
X0105553Y0095129D01*
X0105553Y0094530D02*
X0106500Y0094530D01*
X0106500Y0093932D02*
X0105553Y0093932D01*
X0105553Y0093333D02*
X0106500Y0093333D01*
X0109100Y0093333D02*
X0124407Y0093333D01*
X0124563Y0092735D02*
X0109100Y0092735D01*
X0109100Y0092136D02*
X0124720Y0092136D01*
X0124877Y0091538D02*
X0109100Y0091538D01*
X0109100Y0090939D02*
X0125034Y0090939D01*
X0125191Y0090341D02*
X0109100Y0090341D01*
X0109100Y0089742D02*
X0125348Y0089742D01*
X0125505Y0089144D02*
X0109100Y0089144D01*
X0109100Y0088545D02*
X0125603Y0088545D01*
X0125653Y0087947D02*
X0109100Y0087947D01*
X0109100Y0087348D02*
X0125702Y0087348D01*
X0125751Y0086750D02*
X0109100Y0086750D01*
X0109100Y0086151D02*
X0125801Y0086151D01*
X0125850Y0085553D02*
X0109071Y0085553D01*
X0108910Y0084954D02*
X0125899Y0084954D01*
X0125949Y0084356D02*
X0108750Y0084356D01*
X0108590Y0083757D02*
X0125998Y0083757D01*
X0126048Y0083159D02*
X0108429Y0083159D01*
X0108269Y0082560D02*
X0126097Y0082560D01*
X0126146Y0081962D02*
X0108109Y0081962D01*
X0107948Y0081363D02*
X0126196Y0081363D01*
X0126188Y0080765D02*
X0107692Y0080765D01*
X0107346Y0080166D02*
X0126133Y0080166D01*
X0126078Y0079568D02*
X0107001Y0079568D01*
X0106655Y0078969D02*
X0126023Y0078969D01*
X0125968Y0078370D02*
X0106310Y0078370D01*
X0105964Y0077772D02*
X0125913Y0077772D01*
X0125858Y0077173D02*
X0105619Y0077173D01*
X0105496Y0076962D02*
X0105496Y0076962D01*
X0105110Y0076575D02*
X0125803Y0076575D01*
X0125748Y0075976D02*
X0104511Y0075976D01*
X0103913Y0075378D02*
X0125693Y0075378D01*
X0125638Y0074779D02*
X0103314Y0074779D01*
X0102716Y0074181D02*
X0125583Y0074181D01*
X0125528Y0073582D02*
X0102101Y0073582D01*
X0102138Y0073604D02*
X0102138Y0073604D01*
X0101065Y0072984D02*
X0125413Y0072984D01*
X0125250Y0072385D02*
X0100028Y0072385D01*
X0098991Y0071787D02*
X0125087Y0071787D01*
X0124925Y0071188D02*
X0097873Y0071188D01*
X0095802Y0070590D02*
X0124762Y0070590D01*
X0124599Y0069991D02*
X0095688Y0069991D01*
X0095089Y0069393D02*
X0124436Y0069393D01*
X0124273Y0068794D02*
X0079138Y0068794D01*
X0078539Y0068196D02*
X0124110Y0068196D01*
X0123622Y0066400D02*
X0051715Y0066400D01*
X0052314Y0065802D02*
X0123459Y0065802D01*
X0123181Y0065203D02*
X0052691Y0065203D01*
X0052939Y0064605D02*
X0122899Y0064605D01*
X0122618Y0064006D02*
X0053129Y0064006D01*
X0053129Y0063408D02*
X0122336Y0063408D01*
X0122055Y0062809D02*
X0053129Y0062809D01*
X0052970Y0062211D02*
X0121773Y0062211D01*
X0121491Y0061612D02*
X0052722Y0061612D01*
X0052387Y0061014D02*
X0121210Y0061014D01*
X0120928Y0060415D02*
X0109708Y0060415D01*
X0109671Y0060452D02*
X0108605Y0060894D01*
X0107451Y0060894D01*
X0106385Y0060452D01*
X0105570Y0059637D01*
X0105128Y0058571D01*
X0105128Y0057417D01*
X0105570Y0056351D01*
X0106385Y0055535D01*
X0107451Y0055094D01*
X0108605Y0055094D01*
X0109671Y0055535D01*
X0110487Y0056351D01*
X0110928Y0057417D01*
X0110928Y0058571D01*
X0110487Y0059637D01*
X0109671Y0060452D01*
X0110307Y0059817D02*
X0120647Y0059817D01*
X0120365Y0059218D02*
X0110660Y0059218D01*
X0110908Y0058620D02*
X0120060Y0058620D01*
X0119639Y0058021D02*
X0110928Y0058021D01*
X0110928Y0057423D02*
X0119217Y0057423D01*
X0118795Y0056824D02*
X0110682Y0056824D01*
X0110361Y0056226D02*
X0118374Y0056226D01*
X0117952Y0055627D02*
X0109762Y0055627D01*
X0106294Y0055627D02*
X0083754Y0055627D01*
X0083767Y0055622D02*
X0082166Y0056285D01*
X0080434Y0056285D01*
X0078833Y0055622D01*
X0077608Y0054397D01*
X0076945Y0052796D01*
X0076945Y0051064D01*
X0077608Y0049463D01*
X0078833Y0048238D01*
X0080434Y0047575D01*
X0082166Y0047575D01*
X0083767Y0048238D01*
X0084992Y0049463D01*
X0085655Y0051064D01*
X0085655Y0052796D01*
X0084992Y0054397D01*
X0083767Y0055622D01*
X0084360Y0055029D02*
X0117530Y0055029D01*
X0117109Y0054430D02*
X0084958Y0054430D01*
X0085226Y0053832D02*
X0116687Y0053832D01*
X0116266Y0053233D02*
X0099808Y0053233D01*
X0100215Y0053065D02*
X0099149Y0053506D01*
X0097995Y0053506D01*
X0096929Y0053065D01*
X0096113Y0052249D01*
X0095672Y0051183D01*
X0095672Y0050029D01*
X0096113Y0048963D01*
X0096929Y0048148D01*
X0097995Y0047706D01*
X0099149Y0047706D01*
X0100215Y0048148D01*
X0101030Y0048963D01*
X0101472Y0050029D01*
X0101472Y0051183D01*
X0101030Y0052249D01*
X0100215Y0053065D01*
X0100645Y0052634D02*
X0115844Y0052634D01*
X0115332Y0052036D02*
X0101119Y0052036D01*
X0101366Y0051437D02*
X0114731Y0051437D01*
X0114129Y0050839D02*
X0101472Y0050839D01*
X0101472Y0050240D02*
X0113528Y0050240D01*
X0112927Y0049642D02*
X0101312Y0049642D01*
X0101064Y0049043D02*
X0112325Y0049043D01*
X0111724Y0048445D02*
X0100512Y0048445D01*
X0099488Y0047846D02*
X0111123Y0047846D01*
X0110521Y0047248D02*
X0067188Y0047248D01*
X0067049Y0046975D02*
X0067356Y0047578D01*
X0067565Y0048222D01*
X0067671Y0048891D01*
X0067671Y0049567D01*
X0067565Y0050236D01*
X0067356Y0050880D01*
X0067049Y0051483D01*
X0066651Y0052030D01*
X0066624Y0052057D01*
X0063795Y0049229D01*
X0063371Y0049653D01*
X0062947Y0049229D01*
X0060118Y0052057D01*
X0060091Y0052030D01*
X0059693Y0051483D01*
X0059386Y0050880D01*
X0059177Y0050236D01*
X0059071Y0049567D01*
X0059071Y0048891D01*
X0059177Y0048222D01*
X0059386Y0047578D01*
X0059693Y0046975D01*
X0060091Y0046428D01*
X0060118Y0046400D01*
X0062947Y0049229D01*
X0063371Y0048805D01*
X0063795Y0049229D01*
X0066624Y0046400D01*
X0066651Y0046428D01*
X0067049Y0046975D01*
X0066812Y0046649D02*
X0109842Y0046649D01*
X0108984Y0046051D02*
X0066125Y0046051D01*
X0066199Y0045976D02*
X0063371Y0048805D01*
X0060543Y0045976D01*
X0060570Y0045949D01*
X0061117Y0045551D01*
X0061720Y0045244D01*
X0062364Y0045035D01*
X0063033Y0044929D01*
X0063709Y0044929D01*
X0064378Y0045035D01*
X0065022Y0045244D01*
X0065625Y0045551D01*
X0066172Y0045949D01*
X0066199Y0045976D01*
X0066375Y0046649D02*
X0065526Y0046649D01*
X0065776Y0047248D02*
X0064928Y0047248D01*
X0065178Y0047846D02*
X0064329Y0047846D01*
X0064579Y0048445D02*
X0063731Y0048445D01*
X0063610Y0049043D02*
X0063981Y0049043D01*
X0064208Y0049642D02*
X0063382Y0049642D01*
X0063371Y0049653D02*
X0066199Y0052482D01*
X0066172Y0052509D01*
X0065625Y0052907D01*
X0065022Y0053214D01*
X0064378Y0053423D01*
X0063709Y0053529D01*
X0063033Y0053529D01*
X0062364Y0053423D01*
X0061720Y0053214D01*
X0061117Y0052907D01*
X0060570Y0052509D01*
X0060543Y0052482D01*
X0063371Y0049653D01*
X0063360Y0049642D02*
X0062534Y0049642D01*
X0062761Y0049043D02*
X0063132Y0049043D01*
X0063011Y0048445D02*
X0062163Y0048445D01*
X0062413Y0047846D02*
X0061564Y0047846D01*
X0061814Y0047248D02*
X0060966Y0047248D01*
X0061216Y0046649D02*
X0060367Y0046649D01*
X0059930Y0046649D02*
X0052758Y0046649D01*
X0052079Y0047248D02*
X0059554Y0047248D01*
X0059299Y0047846D02*
X0051477Y0047846D01*
X0050876Y0048445D02*
X0059142Y0048445D01*
X0059071Y0049043D02*
X0050275Y0049043D01*
X0049673Y0049642D02*
X0059083Y0049642D01*
X0059178Y0050240D02*
X0049072Y0050240D01*
X0048471Y0050839D02*
X0059373Y0050839D01*
X0059670Y0051437D02*
X0047869Y0051437D01*
X0047268Y0052036D02*
X0060097Y0052036D01*
X0060140Y0052036D02*
X0060988Y0052036D01*
X0060743Y0052634D02*
X0057642Y0052634D01*
X0058748Y0053233D02*
X0061779Y0053233D01*
X0061587Y0051437D02*
X0060738Y0051437D01*
X0061337Y0050839D02*
X0062185Y0050839D01*
X0061935Y0050240D02*
X0062784Y0050240D01*
X0063958Y0050240D02*
X0064807Y0050240D01*
X0064557Y0050839D02*
X0065405Y0050839D01*
X0065155Y0051437D02*
X0066004Y0051437D01*
X0065754Y0052036D02*
X0066602Y0052036D01*
X0066645Y0052036D02*
X0076945Y0052036D01*
X0076945Y0052634D02*
X0065999Y0052634D01*
X0064963Y0053233D02*
X0077126Y0053233D01*
X0077374Y0053832D02*
X0059347Y0053832D01*
X0059747Y0054430D02*
X0077642Y0054430D01*
X0078240Y0055029D02*
X0059995Y0055029D01*
X0060200Y0055627D02*
X0078846Y0055627D01*
X0080291Y0056226D02*
X0060200Y0056226D01*
X0060200Y0056824D02*
X0105374Y0056824D01*
X0105128Y0057423D02*
X0060056Y0057423D01*
X0059808Y0058021D02*
X0105128Y0058021D01*
X0105148Y0058620D02*
X0059496Y0058620D01*
X0058897Y0059218D02*
X0105396Y0059218D01*
X0105750Y0059817D02*
X0058001Y0059817D01*
X0054599Y0059817D02*
X0050839Y0059817D01*
X0051788Y0060415D02*
X0106348Y0060415D01*
X0105695Y0056226D02*
X0082309Y0056226D01*
X0085474Y0053233D02*
X0097336Y0053233D01*
X0096499Y0052634D02*
X0085655Y0052634D01*
X0085655Y0052036D02*
X0096025Y0052036D01*
X0095777Y0051437D02*
X0085655Y0051437D01*
X0085562Y0050839D02*
X0095672Y0050839D01*
X0095672Y0050240D02*
X0085314Y0050240D01*
X0085066Y0049642D02*
X0095832Y0049642D01*
X0096080Y0049043D02*
X0084572Y0049043D01*
X0083973Y0048445D02*
X0096632Y0048445D01*
X0097656Y0047846D02*
X0082821Y0047846D01*
X0079779Y0047846D02*
X0067443Y0047846D01*
X0067600Y0048445D02*
X0078626Y0048445D01*
X0078028Y0049043D02*
X0067671Y0049043D01*
X0067659Y0049642D02*
X0077534Y0049642D01*
X0077286Y0050240D02*
X0067564Y0050240D01*
X0067369Y0050839D02*
X0077038Y0050839D01*
X0076945Y0051437D02*
X0067072Y0051437D01*
X0065431Y0045452D02*
X0108126Y0045452D01*
X0107268Y0044854D02*
X0055332Y0044854D01*
X0056190Y0044255D02*
X0106410Y0044255D01*
X0105552Y0043657D02*
X0057048Y0043657D01*
X0057906Y0043058D02*
X0104694Y0043058D01*
X0103836Y0042460D02*
X0058764Y0042460D01*
X0059983Y0041861D02*
X0102617Y0041861D01*
X0101329Y0041263D02*
X0061271Y0041263D01*
X0062559Y0040664D02*
X0100041Y0040664D01*
X0098753Y0040066D02*
X0063847Y0040066D01*
X0065135Y0039467D02*
X0097465Y0039467D01*
X0095850Y0038869D02*
X0066750Y0038869D01*
X0068990Y0038270D02*
X0093610Y0038270D01*
X0091369Y0037672D02*
X0071231Y0037672D01*
X0073472Y0037073D02*
X0089128Y0037073D01*
X0082372Y0036475D02*
X0080228Y0036475D01*
X0061311Y0045452D02*
X0054474Y0045452D01*
X0053616Y0046051D02*
X0060617Y0046051D01*
X0079736Y0069393D02*
X0087038Y0069393D01*
X0086440Y0069991D02*
X0080335Y0069991D01*
X0080933Y0070590D02*
X0086325Y0070590D01*
X0086325Y0071188D02*
X0081532Y0071188D01*
X0082130Y0071787D02*
X0086325Y0071787D01*
X0086325Y0072385D02*
X0082729Y0072385D01*
X0083327Y0072984D02*
X0086815Y0072984D01*
X0086652Y0074779D02*
X0084000Y0074779D01*
X0084000Y0074181D02*
X0097674Y0074181D01*
X0098711Y0074779D02*
X0095476Y0074779D01*
X0095802Y0075378D02*
X0099747Y0075378D01*
X0100647Y0075976D02*
X0095802Y0075976D01*
X0096252Y0073582D02*
X0083926Y0073582D01*
X0084000Y0075378D02*
X0086325Y0075378D01*
X0086325Y0075976D02*
X0084000Y0075976D01*
X0084000Y0076575D02*
X0086325Y0076575D01*
X0086325Y0077173D02*
X0084000Y0077173D01*
X0101300Y0123300D02*
X0102324Y0122797D01*
X0103335Y0122269D01*
X0104333Y0121717D01*
X0105317Y0121140D01*
X0106286Y0120539D01*
X0107241Y0119915D01*
X0108180Y0119267D01*
X0109102Y0118597D01*
X0110009Y0117904D01*
X0110897Y0117189D01*
X0111768Y0116453D01*
X0112621Y0115695D01*
X0113455Y0114917D01*
X0114269Y0114118D01*
X0115064Y0113300D01*
X0115839Y0112463D01*
X0116592Y0111606D01*
X0117325Y0110732D01*
X0118035Y0109840D01*
X0118724Y0108931D01*
X0119390Y0108005D01*
X0120033Y0107063D01*
X0120653Y0106106D01*
X0121250Y0105133D01*
X0121822Y0104147D01*
X0122370Y0103146D01*
X0122893Y0102133D01*
X0123392Y0101107D01*
X0123865Y0100069D01*
X0124312Y0099020D01*
X0124733Y0097960D01*
X0125129Y0096890D01*
X0125498Y0095811D01*
X0125840Y0094723D01*
X0126156Y0093627D01*
X0126445Y0092523D01*
X0126706Y0091413D01*
X0126941Y0090297D01*
X0127148Y0089175D01*
X0127327Y0088049D01*
X0127478Y0086918D01*
X0127602Y0085784D01*
X0127698Y0084648D01*
X0127767Y0083509D01*
X0127807Y0082369D01*
X0127819Y0081229D01*
X0127803Y0080088D01*
X0127760Y0078948D01*
X0127688Y0077810D01*
X0127588Y0076674D01*
X0127461Y0075540D01*
X0127306Y0074410D01*
X0127123Y0073285D01*
X0126913Y0072163D01*
X0126675Y0071048D01*
X0126410Y0069938D01*
X0126118Y0068836D01*
X0125799Y0067741D01*
X0125453Y0066654D01*
X0125081Y0065576D01*
X0124682Y0064507D01*
X0124257Y0063449D01*
X0123807Y0062401D01*
X0123331Y0061364D01*
X0122829Y0060340D01*
X0122303Y0059328D01*
X0121752Y0058329D01*
X0121177Y0057344D01*
X0120577Y0056374D01*
X0119954Y0055418D01*
X0119308Y0054478D01*
X0118639Y0053555D01*
X0117948Y0052648D01*
X0117234Y0051758D01*
X0116499Y0050886D01*
X0115743Y0050032D01*
X0114966Y0049197D01*
X0114169Y0048381D01*
X0113352Y0047585D01*
X0112515Y0046809D01*
X0111660Y0046054D01*
X0110787Y0045321D01*
X0109896Y0044608D01*
X0108988Y0043918D01*
X0108063Y0043251D01*
X0107122Y0042606D01*
X0106166Y0041985D01*
X0105195Y0041387D01*
X0104209Y0040813D01*
X0103209Y0040263D01*
X0102197Y0039739D01*
X0101171Y0039239D01*
X0100134Y0038764D01*
X0099086Y0038315D01*
X0098026Y0037892D01*
X0096957Y0037495D01*
X0095878Y0037124D01*
X0094791Y0036780D01*
X0093695Y0036463D01*
X0092592Y0036172D01*
X0091483Y0035909D01*
X0090367Y0035673D01*
X0089245Y0035465D01*
X0088119Y0035284D01*
X0086989Y0035130D01*
X0085855Y0035005D01*
X0084719Y0034907D01*
X0083580Y0034837D01*
X0082441Y0034795D01*
X0081300Y0034781D01*
X0080159Y0034795D01*
X0079020Y0034837D01*
X0077881Y0034907D01*
X0076745Y0035005D01*
X0075611Y0035130D01*
X0074481Y0035284D01*
X0073355Y0035465D01*
X0072233Y0035673D01*
X0071117Y0035909D01*
X0070008Y0036172D01*
X0068905Y0036463D01*
X0067809Y0036780D01*
X0066722Y0037124D01*
X0065643Y0037495D01*
X0064574Y0037892D01*
X0063514Y0038315D01*
X0062466Y0038764D01*
X0061429Y0039239D01*
X0060403Y0039739D01*
X0059391Y0040263D01*
X0058391Y0040813D01*
X0057405Y0041387D01*
X0056434Y0041985D01*
X0055478Y0042606D01*
X0054537Y0043251D01*
X0053612Y0043918D01*
X0052704Y0044608D01*
X0051813Y0045321D01*
X0050940Y0046054D01*
X0050085Y0046809D01*
X0049248Y0047585D01*
X0048431Y0048381D01*
X0047634Y0049197D01*
X0046857Y0050032D01*
X0046101Y0050886D01*
X0045366Y0051758D01*
X0044652Y0052648D01*
X0043961Y0053555D01*
X0043292Y0054478D01*
X0042646Y0055418D01*
X0042023Y0056374D01*
X0041423Y0057344D01*
X0040848Y0058329D01*
X0040297Y0059328D01*
X0039771Y0060340D01*
X0039269Y0061364D01*
X0038793Y0062401D01*
X0038343Y0063449D01*
X0037918Y0064507D01*
X0037519Y0065576D01*
X0037147Y0066654D01*
X0036801Y0067741D01*
X0036482Y0068836D01*
X0036190Y0069938D01*
X0035925Y0071048D01*
X0035687Y0072163D01*
X0035477Y0073285D01*
X0035294Y0074410D01*
X0035139Y0075540D01*
X0035012Y0076674D01*
X0034912Y0077810D01*
X0034840Y0078948D01*
X0034797Y0080088D01*
X0034781Y0081229D01*
X0034793Y0082369D01*
X0034833Y0083509D01*
X0034902Y0084648D01*
X0034998Y0085784D01*
X0035122Y0086918D01*
X0035273Y0088049D01*
X0035452Y0089175D01*
X0035659Y0090297D01*
X0035894Y0091413D01*
X0036155Y0092523D01*
X0036444Y0093627D01*
X0036760Y0094723D01*
X0037102Y0095811D01*
X0037471Y0096890D01*
X0037867Y0097960D01*
X0038288Y0099020D01*
X0038735Y0100069D01*
X0039208Y0101107D01*
X0039707Y0102133D01*
X0040230Y0103146D01*
X0040778Y0104147D01*
X0041350Y0105133D01*
X0041947Y0106106D01*
X0042567Y0107063D01*
X0043210Y0108005D01*
X0043876Y0108931D01*
X0044565Y0109840D01*
X0045275Y0110732D01*
X0046008Y0111606D01*
X0046761Y0112463D01*
X0047536Y0113300D01*
X0048331Y0114118D01*
X0049145Y0114917D01*
X0049979Y0115695D01*
X0050832Y0116453D01*
X0051703Y0117189D01*
X0052591Y0117904D01*
X0053498Y0118597D01*
X0054420Y0119267D01*
X0055359Y0119915D01*
X0056314Y0120539D01*
X0057283Y0121140D01*
X0058267Y0121717D01*
X0059265Y0122269D01*
X0060276Y0122797D01*
X0061300Y0123300D01*
X0066756Y0090939D02*
X0066798Y0090939D01*
X0082600Y0090939D02*
X0082791Y0090939D01*
X0082600Y0091538D02*
X0083389Y0091538D01*
X0084073Y0088545D02*
X0095983Y0088545D01*
X0096000Y0087947D02*
X0095350Y0087947D01*
X0095802Y0087348D02*
X0096000Y0087348D01*
X0096000Y0086750D02*
X0095802Y0086750D01*
X0095802Y0086151D02*
X0096000Y0086151D01*
X0096000Y0085553D02*
X0095802Y0085553D01*
X0095651Y0084954D02*
X0096000Y0084954D01*
X0096000Y0084356D02*
X0095052Y0084356D01*
X0101000Y0089144D02*
X0101600Y0089144D01*
X0101600Y0089742D02*
X0101000Y0089742D01*
X0101000Y0090341D02*
X0101600Y0090341D01*
X0101600Y0090939D02*
X0101000Y0090939D01*
X0101000Y0091538D02*
X0101600Y0091538D01*
X0101600Y0092136D02*
X0101000Y0092136D01*
X0109100Y0093932D02*
X0124250Y0093932D01*
X0124093Y0094530D02*
X0109100Y0094530D01*
X0109100Y0095129D02*
X0123936Y0095129D01*
X0123779Y0095727D02*
X0109100Y0095727D01*
X0109100Y0096326D02*
X0123622Y0096326D01*
X0123366Y0096924D02*
X0109100Y0096924D01*
X0109100Y0097523D02*
X0123091Y0097523D01*
X0122817Y0098121D02*
X0109100Y0098121D01*
X0109100Y0098720D02*
X0122542Y0098720D01*
X0122267Y0099318D02*
X0109100Y0099318D01*
X0109100Y0099917D02*
X0121992Y0099917D01*
X0121718Y0100515D02*
X0109100Y0100515D01*
X0109100Y0101114D02*
X0121443Y0101114D01*
X0121168Y0101712D02*
X0109100Y0101712D01*
X0109100Y0102311D02*
X0120894Y0102311D01*
X0120619Y0102909D02*
X0109100Y0102909D01*
X0109100Y0103508D02*
X0120344Y0103508D01*
X0119933Y0104106D02*
X0109100Y0104106D01*
X0109935Y0104705D02*
X0119519Y0104705D01*
X0119106Y0105303D02*
X0110533Y0105303D01*
X0110700Y0105902D02*
X0118693Y0105902D01*
X0118279Y0106501D02*
X0110700Y0106501D01*
X0110700Y0107099D02*
X0117866Y0107099D01*
X0117453Y0107698D02*
X0110700Y0107698D01*
X0110700Y0108296D02*
X0117039Y0108296D01*
X0116626Y0108895D02*
X0110700Y0108895D01*
X0110700Y0109493D02*
X0116213Y0109493D01*
X0115755Y0110092D02*
X0110700Y0110092D01*
X0110700Y0110690D02*
X0115164Y0110690D01*
X0114574Y0111289D02*
X0110541Y0111289D01*
X0109943Y0111887D02*
X0113984Y0111887D01*
D11*
X0106428Y0057994D02*
X0106430Y0058074D01*
X0106436Y0058153D01*
X0106446Y0058232D01*
X0106460Y0058311D01*
X0106477Y0058389D01*
X0106499Y0058466D01*
X0106524Y0058541D01*
X0106554Y0058615D01*
X0106586Y0058688D01*
X0106623Y0058759D01*
X0106663Y0058828D01*
X0106706Y0058895D01*
X0106753Y0058960D01*
X0106802Y0059022D01*
X0106855Y0059082D01*
X0106911Y0059139D01*
X0106969Y0059194D01*
X0107030Y0059245D01*
X0107094Y0059293D01*
X0107160Y0059338D01*
X0107228Y0059380D01*
X0107298Y0059418D01*
X0107370Y0059452D01*
X0107443Y0059483D01*
X0107518Y0059511D01*
X0107595Y0059534D01*
X0107672Y0059554D01*
X0107750Y0059570D01*
X0107829Y0059582D01*
X0107908Y0059590D01*
X0107988Y0059594D01*
X0108068Y0059594D01*
X0108148Y0059590D01*
X0108227Y0059582D01*
X0108306Y0059570D01*
X0108384Y0059554D01*
X0108461Y0059534D01*
X0108538Y0059511D01*
X0108613Y0059483D01*
X0108686Y0059452D01*
X0108758Y0059418D01*
X0108828Y0059380D01*
X0108896Y0059338D01*
X0108962Y0059293D01*
X0109026Y0059245D01*
X0109087Y0059194D01*
X0109145Y0059139D01*
X0109201Y0059082D01*
X0109254Y0059022D01*
X0109303Y0058960D01*
X0109350Y0058895D01*
X0109393Y0058828D01*
X0109433Y0058759D01*
X0109470Y0058688D01*
X0109502Y0058615D01*
X0109532Y0058541D01*
X0109557Y0058466D01*
X0109579Y0058389D01*
X0109596Y0058311D01*
X0109610Y0058232D01*
X0109620Y0058153D01*
X0109626Y0058074D01*
X0109628Y0057994D01*
X0109626Y0057914D01*
X0109620Y0057835D01*
X0109610Y0057756D01*
X0109596Y0057677D01*
X0109579Y0057599D01*
X0109557Y0057522D01*
X0109532Y0057447D01*
X0109502Y0057373D01*
X0109470Y0057300D01*
X0109433Y0057229D01*
X0109393Y0057160D01*
X0109350Y0057093D01*
X0109303Y0057028D01*
X0109254Y0056966D01*
X0109201Y0056906D01*
X0109145Y0056849D01*
X0109087Y0056794D01*
X0109026Y0056743D01*
X0108962Y0056695D01*
X0108896Y0056650D01*
X0108828Y0056608D01*
X0108758Y0056570D01*
X0108686Y0056536D01*
X0108613Y0056505D01*
X0108538Y0056477D01*
X0108461Y0056454D01*
X0108384Y0056434D01*
X0108306Y0056418D01*
X0108227Y0056406D01*
X0108148Y0056398D01*
X0108068Y0056394D01*
X0107988Y0056394D01*
X0107908Y0056398D01*
X0107829Y0056406D01*
X0107750Y0056418D01*
X0107672Y0056434D01*
X0107595Y0056454D01*
X0107518Y0056477D01*
X0107443Y0056505D01*
X0107370Y0056536D01*
X0107298Y0056570D01*
X0107228Y0056608D01*
X0107160Y0056650D01*
X0107094Y0056695D01*
X0107030Y0056743D01*
X0106969Y0056794D01*
X0106911Y0056849D01*
X0106855Y0056906D01*
X0106802Y0056966D01*
X0106753Y0057028D01*
X0106706Y0057093D01*
X0106663Y0057160D01*
X0106623Y0057229D01*
X0106586Y0057300D01*
X0106554Y0057373D01*
X0106524Y0057447D01*
X0106499Y0057522D01*
X0106477Y0057599D01*
X0106460Y0057677D01*
X0106446Y0057756D01*
X0106436Y0057835D01*
X0106430Y0057914D01*
X0106428Y0057994D01*
X0096972Y0050606D02*
X0096974Y0050686D01*
X0096980Y0050765D01*
X0096990Y0050844D01*
X0097004Y0050923D01*
X0097021Y0051001D01*
X0097043Y0051078D01*
X0097068Y0051153D01*
X0097098Y0051227D01*
X0097130Y0051300D01*
X0097167Y0051371D01*
X0097207Y0051440D01*
X0097250Y0051507D01*
X0097297Y0051572D01*
X0097346Y0051634D01*
X0097399Y0051694D01*
X0097455Y0051751D01*
X0097513Y0051806D01*
X0097574Y0051857D01*
X0097638Y0051905D01*
X0097704Y0051950D01*
X0097772Y0051992D01*
X0097842Y0052030D01*
X0097914Y0052064D01*
X0097987Y0052095D01*
X0098062Y0052123D01*
X0098139Y0052146D01*
X0098216Y0052166D01*
X0098294Y0052182D01*
X0098373Y0052194D01*
X0098452Y0052202D01*
X0098532Y0052206D01*
X0098612Y0052206D01*
X0098692Y0052202D01*
X0098771Y0052194D01*
X0098850Y0052182D01*
X0098928Y0052166D01*
X0099005Y0052146D01*
X0099082Y0052123D01*
X0099157Y0052095D01*
X0099230Y0052064D01*
X0099302Y0052030D01*
X0099372Y0051992D01*
X0099440Y0051950D01*
X0099506Y0051905D01*
X0099570Y0051857D01*
X0099631Y0051806D01*
X0099689Y0051751D01*
X0099745Y0051694D01*
X0099798Y0051634D01*
X0099847Y0051572D01*
X0099894Y0051507D01*
X0099937Y0051440D01*
X0099977Y0051371D01*
X0100014Y0051300D01*
X0100046Y0051227D01*
X0100076Y0051153D01*
X0100101Y0051078D01*
X0100123Y0051001D01*
X0100140Y0050923D01*
X0100154Y0050844D01*
X0100164Y0050765D01*
X0100170Y0050686D01*
X0100172Y0050606D01*
X0100170Y0050526D01*
X0100164Y0050447D01*
X0100154Y0050368D01*
X0100140Y0050289D01*
X0100123Y0050211D01*
X0100101Y0050134D01*
X0100076Y0050059D01*
X0100046Y0049985D01*
X0100014Y0049912D01*
X0099977Y0049841D01*
X0099937Y0049772D01*
X0099894Y0049705D01*
X0099847Y0049640D01*
X0099798Y0049578D01*
X0099745Y0049518D01*
X0099689Y0049461D01*
X0099631Y0049406D01*
X0099570Y0049355D01*
X0099506Y0049307D01*
X0099440Y0049262D01*
X0099372Y0049220D01*
X0099302Y0049182D01*
X0099230Y0049148D01*
X0099157Y0049117D01*
X0099082Y0049089D01*
X0099005Y0049066D01*
X0098928Y0049046D01*
X0098850Y0049030D01*
X0098771Y0049018D01*
X0098692Y0049010D01*
X0098612Y0049006D01*
X0098532Y0049006D01*
X0098452Y0049010D01*
X0098373Y0049018D01*
X0098294Y0049030D01*
X0098216Y0049046D01*
X0098139Y0049066D01*
X0098062Y0049089D01*
X0097987Y0049117D01*
X0097914Y0049148D01*
X0097842Y0049182D01*
X0097772Y0049220D01*
X0097704Y0049262D01*
X0097638Y0049307D01*
X0097574Y0049355D01*
X0097513Y0049406D01*
X0097455Y0049461D01*
X0097399Y0049518D01*
X0097346Y0049578D01*
X0097297Y0049640D01*
X0097250Y0049705D01*
X0097207Y0049772D01*
X0097167Y0049841D01*
X0097130Y0049912D01*
X0097098Y0049985D01*
X0097068Y0050059D01*
X0097043Y0050134D01*
X0097021Y0050211D01*
X0097004Y0050289D01*
X0096990Y0050368D01*
X0096980Y0050447D01*
X0096974Y0050526D01*
X0096972Y0050606D01*
D12*
X0081300Y0130670D03*
D13*
X0081300Y0051930D03*
D14*
X0091064Y0101300D03*
D15*
X0087806Y0096881D02*
X0094322Y0096881D01*
X0094322Y0095719D01*
X0087806Y0095719D01*
X0087806Y0096881D01*
X0087806Y0096822D02*
X0094322Y0096822D01*
X0094322Y0091881D02*
X0087806Y0091881D01*
X0094322Y0091881D02*
X0094322Y0090719D01*
X0087806Y0090719D01*
X0087806Y0091881D01*
X0087806Y0091822D02*
X0094322Y0091822D01*
X0094322Y0086881D02*
X0087806Y0086881D01*
X0094322Y0086881D02*
X0094322Y0085719D01*
X0087806Y0085719D01*
X0087806Y0086881D01*
X0087806Y0086822D02*
X0094322Y0086822D01*
X0094322Y0081881D02*
X0087806Y0081881D01*
X0094322Y0081881D02*
X0094322Y0080719D01*
X0087806Y0080719D01*
X0087806Y0081881D01*
X0087806Y0081822D02*
X0094322Y0081822D01*
X0094322Y0076881D02*
X0087806Y0076881D01*
X0094322Y0076881D02*
X0094322Y0075719D01*
X0087806Y0075719D01*
X0087806Y0076881D01*
X0087806Y0076822D02*
X0094322Y0076822D01*
X0094322Y0071881D02*
X0087806Y0071881D01*
X0094322Y0071881D02*
X0094322Y0070719D01*
X0087806Y0070719D01*
X0087806Y0071881D01*
X0087806Y0071822D02*
X0094322Y0071822D01*
X0074794Y0071881D02*
X0068278Y0071881D01*
X0074794Y0071881D02*
X0074794Y0070719D01*
X0068278Y0070719D01*
X0068278Y0071881D01*
X0068278Y0071822D02*
X0074794Y0071822D01*
X0074794Y0076881D02*
X0068278Y0076881D01*
X0074794Y0076881D02*
X0074794Y0075719D01*
X0068278Y0075719D01*
X0068278Y0076881D01*
X0068278Y0076822D02*
X0074794Y0076822D01*
X0074794Y0081881D02*
X0068278Y0081881D01*
X0074794Y0081881D02*
X0074794Y0080719D01*
X0068278Y0080719D01*
X0068278Y0081881D01*
X0068278Y0081822D02*
X0074794Y0081822D01*
X0074794Y0086881D02*
X0068278Y0086881D01*
X0074794Y0086881D02*
X0074794Y0085719D01*
X0068278Y0085719D01*
X0068278Y0086881D01*
X0068278Y0086822D02*
X0074794Y0086822D01*
X0074794Y0091881D02*
X0068278Y0091881D01*
X0074794Y0091881D02*
X0074794Y0090719D01*
X0068278Y0090719D01*
X0068278Y0091881D01*
X0068278Y0091822D02*
X0074794Y0091822D01*
X0074794Y0096881D02*
X0068278Y0096881D01*
X0074794Y0096881D02*
X0074794Y0095719D01*
X0068278Y0095719D01*
X0068278Y0096881D01*
X0068278Y0096822D02*
X0074794Y0096822D01*
X0074794Y0101881D02*
X0068278Y0101881D01*
X0074794Y0101881D02*
X0074794Y0100719D01*
X0068278Y0100719D01*
X0068278Y0101881D01*
X0068278Y0101822D02*
X0074794Y0101822D01*
D16*
X0076300Y0112550D02*
X0079300Y0112550D01*
X0079300Y0108050D01*
X0076300Y0108050D01*
X0076300Y0112550D01*
X0076300Y0109000D02*
X0079300Y0109000D01*
X0079300Y0109950D02*
X0076300Y0109950D01*
X0076300Y0110900D02*
X0079300Y0110900D01*
X0079300Y0111850D02*
X0076300Y0111850D01*
X0083300Y0112550D02*
X0086300Y0112550D01*
X0086300Y0108050D01*
X0083300Y0108050D01*
X0083300Y0112550D01*
X0083300Y0109000D02*
X0086300Y0109000D01*
X0086300Y0109950D02*
X0083300Y0109950D01*
X0083300Y0110900D02*
X0086300Y0110900D01*
X0086300Y0111850D02*
X0083300Y0111850D01*
X0099300Y0110550D02*
X0102300Y0110550D01*
X0102300Y0106050D01*
X0099300Y0106050D01*
X0099300Y0110550D01*
X0099300Y0107000D02*
X0102300Y0107000D01*
X0102300Y0107950D02*
X0099300Y0107950D01*
X0099300Y0108900D02*
X0102300Y0108900D01*
X0102300Y0109850D02*
X0099300Y0109850D01*
X0106300Y0110550D02*
X0109300Y0110550D01*
X0109300Y0106050D01*
X0106300Y0106050D01*
X0106300Y0110550D01*
X0106300Y0107000D02*
X0109300Y0107000D01*
X0109300Y0107950D02*
X0106300Y0107950D01*
X0106300Y0108900D02*
X0109300Y0108900D01*
X0109300Y0109850D02*
X0106300Y0109850D01*
X0064300Y0111550D02*
X0061300Y0111550D01*
X0064300Y0111550D02*
X0064300Y0107050D01*
X0061300Y0107050D01*
X0061300Y0111550D01*
X0061300Y0108000D02*
X0064300Y0108000D01*
X0064300Y0108950D02*
X0061300Y0108950D01*
X0061300Y0109900D02*
X0064300Y0109900D01*
X0064300Y0110850D02*
X0061300Y0110850D01*
X0057300Y0111550D02*
X0054300Y0111550D01*
X0057300Y0111550D02*
X0057300Y0107050D01*
X0054300Y0107050D01*
X0054300Y0111550D01*
X0054300Y0108000D02*
X0057300Y0108000D01*
X0057300Y0108950D02*
X0054300Y0108950D01*
X0054300Y0109900D02*
X0057300Y0109900D01*
X0057300Y0110850D02*
X0054300Y0110850D01*
D17*
X0101300Y0100040D03*
X0101300Y0092560D03*
D18*
X0056300Y0056300D03*
X0049229Y0063371D03*
X0063371Y0049229D03*
D19*
X0097300Y0079300D03*
X0078300Y0090300D03*
X0077300Y0094300D03*
X0065300Y0089300D03*
X0065300Y0081300D03*
X0051300Y0091300D03*
X0061300Y0116300D03*
X0070300Y0117300D03*
X0081300Y0121300D03*
X0096300Y0117300D03*
X0101300Y0116300D03*
D20*
X0091064Y0120906D02*
X0091064Y0101300D01*
X0091064Y0120906D02*
X0091061Y0121142D01*
X0091053Y0121378D01*
X0091038Y0121613D01*
X0091018Y0121848D01*
X0090993Y0122083D01*
X0090962Y0122317D01*
X0090925Y0122550D01*
X0090882Y0122782D01*
X0090834Y0123013D01*
X0090780Y0123243D01*
X0090721Y0123471D01*
X0090656Y0123698D01*
X0090586Y0123923D01*
X0090510Y0124147D01*
X0090429Y0124368D01*
X0090343Y0124588D01*
X0090252Y0124805D01*
X0090155Y0125021D01*
X0090053Y0125233D01*
X0089946Y0125444D01*
X0089833Y0125651D01*
X0089716Y0125856D01*
X0089594Y0126058D01*
X0089467Y0126257D01*
X0089336Y0126453D01*
X0089199Y0126645D01*
X0089058Y0126834D01*
X0088913Y0127020D01*
X0088763Y0127202D01*
X0088608Y0127381D01*
X0088450Y0127555D01*
X0088287Y0127726D01*
X0088120Y0127893D01*
X0087949Y0128056D01*
X0087775Y0128214D01*
X0087596Y0128369D01*
X0087414Y0128519D01*
X0087228Y0128664D01*
X0087039Y0128805D01*
X0086847Y0128942D01*
X0086651Y0129073D01*
X0086452Y0129200D01*
X0086250Y0129322D01*
X0086045Y0129439D01*
X0085838Y0129552D01*
X0085627Y0129659D01*
X0085415Y0129761D01*
X0085199Y0129858D01*
X0084982Y0129949D01*
X0084762Y0130035D01*
X0084541Y0130116D01*
X0084317Y0130192D01*
X0084092Y0130262D01*
X0083865Y0130327D01*
X0083637Y0130386D01*
X0083407Y0130440D01*
X0083176Y0130488D01*
X0082944Y0130531D01*
X0082711Y0130568D01*
X0082477Y0130599D01*
X0082242Y0130624D01*
X0082007Y0130644D01*
X0081772Y0130659D01*
X0081536Y0130667D01*
X0081300Y0130670D01*
D21*
X0081300Y0121300D02*
X0077800Y0110300D01*
X0083300Y0106300D02*
X0083376Y0106302D01*
X0083452Y0106308D01*
X0083527Y0106317D01*
X0083602Y0106331D01*
X0083676Y0106348D01*
X0083749Y0106369D01*
X0083821Y0106393D01*
X0083892Y0106422D01*
X0083961Y0106453D01*
X0084028Y0106488D01*
X0084093Y0106527D01*
X0084157Y0106569D01*
X0084218Y0106614D01*
X0084277Y0106662D01*
X0084333Y0106713D01*
X0084387Y0106767D01*
X0084438Y0106823D01*
X0084486Y0106882D01*
X0084531Y0106943D01*
X0084573Y0107007D01*
X0084612Y0107072D01*
X0084647Y0107139D01*
X0084678Y0107208D01*
X0084707Y0107279D01*
X0084731Y0107351D01*
X0084752Y0107424D01*
X0084769Y0107498D01*
X0084783Y0107573D01*
X0084792Y0107648D01*
X0084798Y0107724D01*
X0084800Y0107800D01*
X0084800Y0110300D01*
X0083300Y0106300D02*
X0083213Y0106298D01*
X0083126Y0106292D01*
X0083039Y0106283D01*
X0082953Y0106270D01*
X0082867Y0106253D01*
X0082782Y0106232D01*
X0082699Y0106207D01*
X0082616Y0106179D01*
X0082535Y0106148D01*
X0082455Y0106113D01*
X0082377Y0106074D01*
X0082300Y0106032D01*
X0082225Y0105987D01*
X0082153Y0105938D01*
X0082082Y0105887D01*
X0082014Y0105832D01*
X0081949Y0105775D01*
X0081886Y0105714D01*
X0081825Y0105651D01*
X0081768Y0105586D01*
X0081713Y0105518D01*
X0081662Y0105447D01*
X0081613Y0105375D01*
X0081568Y0105300D01*
X0081526Y0105223D01*
X0081487Y0105145D01*
X0081452Y0105065D01*
X0081421Y0104984D01*
X0081393Y0104901D01*
X0081368Y0104818D01*
X0081347Y0104733D01*
X0081330Y0104647D01*
X0081317Y0104561D01*
X0081308Y0104474D01*
X0081302Y0104387D01*
X0081300Y0104300D01*
X0081300Y0077300D01*
X0082700Y0074195D02*
X0077644Y0069139D01*
X0067624Y0069139D01*
X0060900Y0075862D01*
X0060900Y0081700D01*
X0051300Y0091300D01*
X0065300Y0089300D02*
X0068300Y0086300D01*
X0071536Y0086300D01*
X0071536Y0081300D02*
X0065300Y0081300D01*
X0062300Y0080300D02*
X0062302Y0080174D01*
X0062308Y0080049D01*
X0062318Y0079924D01*
X0062332Y0079799D01*
X0062349Y0079674D01*
X0062371Y0079550D01*
X0062396Y0079427D01*
X0062426Y0079305D01*
X0062459Y0079184D01*
X0062496Y0079064D01*
X0062536Y0078945D01*
X0062581Y0078828D01*
X0062629Y0078711D01*
X0062681Y0078597D01*
X0062736Y0078484D01*
X0062795Y0078373D01*
X0062857Y0078264D01*
X0062923Y0078157D01*
X0062992Y0078052D01*
X0063064Y0077949D01*
X0063139Y0077848D01*
X0063218Y0077750D01*
X0063300Y0077655D01*
X0063384Y0077562D01*
X0063472Y0077472D01*
X0063562Y0077384D01*
X0063655Y0077300D01*
X0063750Y0077218D01*
X0063848Y0077139D01*
X0063949Y0077064D01*
X0064052Y0076992D01*
X0064157Y0076923D01*
X0064264Y0076857D01*
X0064373Y0076795D01*
X0064484Y0076736D01*
X0064597Y0076681D01*
X0064711Y0076629D01*
X0064828Y0076581D01*
X0064945Y0076536D01*
X0065064Y0076496D01*
X0065184Y0076459D01*
X0065305Y0076426D01*
X0065427Y0076396D01*
X0065550Y0076371D01*
X0065674Y0076349D01*
X0065799Y0076332D01*
X0065924Y0076318D01*
X0066049Y0076308D01*
X0066174Y0076302D01*
X0066300Y0076300D01*
X0071536Y0076300D01*
X0075300Y0071300D02*
X0075452Y0071302D01*
X0075604Y0071308D01*
X0075756Y0071317D01*
X0075907Y0071331D01*
X0076058Y0071348D01*
X0076209Y0071369D01*
X0076359Y0071394D01*
X0076508Y0071423D01*
X0076656Y0071455D01*
X0076804Y0071492D01*
X0076951Y0071531D01*
X0077096Y0071575D01*
X0077241Y0071623D01*
X0077384Y0071673D01*
X0077526Y0071728D01*
X0077666Y0071786D01*
X0077805Y0071848D01*
X0077942Y0071913D01*
X0078078Y0071982D01*
X0078212Y0072054D01*
X0078344Y0072129D01*
X0078474Y0072208D01*
X0078602Y0072290D01*
X0078728Y0072375D01*
X0078851Y0072464D01*
X0078973Y0072555D01*
X0079092Y0072650D01*
X0079208Y0072747D01*
X0079322Y0072848D01*
X0079434Y0072951D01*
X0079543Y0073057D01*
X0079649Y0073166D01*
X0079752Y0073278D01*
X0079853Y0073392D01*
X0079950Y0073508D01*
X0080045Y0073627D01*
X0080136Y0073749D01*
X0080225Y0073872D01*
X0080310Y0073998D01*
X0080392Y0074126D01*
X0080471Y0074256D01*
X0080546Y0074388D01*
X0080618Y0074522D01*
X0080687Y0074658D01*
X0080752Y0074795D01*
X0080814Y0074934D01*
X0080872Y0075074D01*
X0080927Y0075216D01*
X0080977Y0075359D01*
X0081025Y0075504D01*
X0081069Y0075649D01*
X0081108Y0075796D01*
X0081145Y0075944D01*
X0081177Y0076092D01*
X0081206Y0076241D01*
X0081231Y0076391D01*
X0081252Y0076542D01*
X0081269Y0076693D01*
X0081283Y0076844D01*
X0081292Y0076996D01*
X0081298Y0077148D01*
X0081300Y0077300D01*
X0082700Y0074195D02*
X0082700Y0089010D01*
X0087151Y0093461D01*
X0088225Y0093461D01*
X0091064Y0096300D01*
X0093902Y0098461D02*
X0094976Y0098461D01*
X0097347Y0096091D01*
X0097347Y0088629D01*
X0097300Y0088634D01*
X0097300Y0079300D01*
X0091064Y0071300D02*
X0091468Y0071305D01*
X0091873Y0071320D01*
X0092276Y0071344D01*
X0092679Y0071378D01*
X0093081Y0071422D01*
X0093482Y0071476D01*
X0093882Y0071539D01*
X0094279Y0071612D01*
X0094675Y0071694D01*
X0095069Y0071786D01*
X0095461Y0071888D01*
X0095850Y0071999D01*
X0096236Y0072119D01*
X0096619Y0072249D01*
X0096999Y0072388D01*
X0097375Y0072536D01*
X0097748Y0072693D01*
X0098117Y0072859D01*
X0098481Y0073033D01*
X0098842Y0073217D01*
X0099197Y0073409D01*
X0099548Y0073610D01*
X0099895Y0073819D01*
X0100236Y0074037D01*
X0100571Y0074263D01*
X0100901Y0074496D01*
X0101225Y0074738D01*
X0101544Y0074987D01*
X0101856Y0075244D01*
X0102162Y0075509D01*
X0102461Y0075781D01*
X0102754Y0076060D01*
X0103040Y0076346D01*
X0103319Y0076639D01*
X0103591Y0076938D01*
X0103856Y0077244D01*
X0104113Y0077556D01*
X0104362Y0077875D01*
X0104604Y0078199D01*
X0104837Y0078529D01*
X0105063Y0078864D01*
X0105281Y0079205D01*
X0105490Y0079552D01*
X0105691Y0079903D01*
X0105883Y0080258D01*
X0106067Y0080619D01*
X0106241Y0080983D01*
X0106407Y0081352D01*
X0106564Y0081725D01*
X0106712Y0082101D01*
X0106851Y0082481D01*
X0106981Y0082864D01*
X0107101Y0083250D01*
X0107212Y0083639D01*
X0107314Y0084031D01*
X0107406Y0084425D01*
X0107488Y0084821D01*
X0107561Y0085218D01*
X0107624Y0085618D01*
X0107678Y0086019D01*
X0107722Y0086421D01*
X0107756Y0086824D01*
X0107780Y0087227D01*
X0107795Y0087632D01*
X0107800Y0088036D01*
X0107800Y0108300D01*
X0100800Y0108300D02*
X0101300Y0116300D01*
X0100040Y0101300D02*
X0091064Y0101300D01*
X0093902Y0098461D01*
X0100040Y0101300D02*
X0100108Y0101298D01*
X0100176Y0101293D01*
X0100244Y0101283D01*
X0100311Y0101271D01*
X0100377Y0101254D01*
X0100442Y0101234D01*
X0100506Y0101211D01*
X0100569Y0101184D01*
X0100630Y0101153D01*
X0100690Y0101120D01*
X0100747Y0101083D01*
X0100803Y0101043D01*
X0100856Y0101000D01*
X0100907Y0100955D01*
X0100955Y0100907D01*
X0101000Y0100856D01*
X0101043Y0100803D01*
X0101083Y0100747D01*
X0101120Y0100690D01*
X0101153Y0100630D01*
X0101184Y0100569D01*
X0101211Y0100506D01*
X0101234Y0100442D01*
X0101254Y0100377D01*
X0101271Y0100311D01*
X0101283Y0100244D01*
X0101293Y0100176D01*
X0101298Y0100108D01*
X0101300Y0100040D01*
X0077300Y0094300D02*
X0071536Y0096300D01*
X0071536Y0091300D02*
X0078300Y0090300D01*
X0062300Y0080300D02*
X0062300Y0108800D01*
X0062302Y0108844D01*
X0062308Y0108887D01*
X0062317Y0108929D01*
X0062330Y0108971D01*
X0062347Y0109011D01*
X0062367Y0109050D01*
X0062390Y0109087D01*
X0062417Y0109121D01*
X0062446Y0109154D01*
X0062479Y0109183D01*
X0062513Y0109210D01*
X0062550Y0109233D01*
X0062589Y0109253D01*
X0062629Y0109270D01*
X0062671Y0109283D01*
X0062713Y0109292D01*
X0062756Y0109298D01*
X0062800Y0109300D01*
X0055800Y0109300D02*
X0061300Y0116300D01*
X0071536Y0071300D02*
X0075300Y0071300D01*
M02*
