G75*
%MOIN*%
%OFA0B0*%
%FSLAX25Y25*%
%IPPOS*%
%LPD*%
%AMOC8*
5,1,8,0,0,1.08239X$1,22.5*
%
%ADD10C,0.00600*%
%ADD11C,0.00800*%
%ADD12C,0.00500*%
%ADD13R,0.05000X0.10000*%
%ADD14C,0.00000*%
%ADD15C,0.00250*%
%ADD16C,0.00984*%
%ADD17C,0.00984*%
D10*
X0054532Y0050997D02*
X0050997Y0054532D01*
X0050997Y0058068D01*
X0047461Y0058068D01*
X0043926Y0061603D01*
X0043926Y0065139D01*
X0047461Y0068674D01*
X0050997Y0068674D01*
X0054532Y0065139D01*
X0054532Y0061603D01*
X0058068Y0061603D01*
X0061603Y0058068D01*
X0061603Y0054532D01*
X0065139Y0054532D01*
X0068674Y0050997D01*
X0068674Y0047461D01*
X0065139Y0043926D01*
X0061603Y0043926D01*
X0058068Y0047461D01*
X0058068Y0050997D01*
X0054532Y0050997D01*
X0058068Y0050997D02*
X0061603Y0054532D01*
X0054532Y0061603D02*
X0050997Y0058068D01*
X0061300Y0123300D02*
X0060276Y0122797D01*
X0059265Y0122269D01*
X0058267Y0121717D01*
X0057283Y0121140D01*
X0056314Y0120539D01*
X0055359Y0119915D01*
X0054420Y0119267D01*
X0053498Y0118597D01*
X0052591Y0117904D01*
X0051703Y0117189D01*
X0050832Y0116453D01*
X0049979Y0115695D01*
X0049145Y0114917D01*
X0048331Y0114118D01*
X0047536Y0113300D01*
X0046761Y0112463D01*
X0046008Y0111606D01*
X0045275Y0110732D01*
X0044565Y0109840D01*
X0043876Y0108931D01*
X0043210Y0108005D01*
X0042567Y0107063D01*
X0041947Y0106106D01*
X0041350Y0105133D01*
X0040778Y0104147D01*
X0040230Y0103146D01*
X0039707Y0102133D01*
X0039208Y0101107D01*
X0038735Y0100069D01*
X0038288Y0099020D01*
X0037867Y0097960D01*
X0037471Y0096890D01*
X0037102Y0095811D01*
X0036760Y0094723D01*
X0036444Y0093627D01*
X0036155Y0092523D01*
X0035894Y0091413D01*
X0035659Y0090297D01*
X0035452Y0089175D01*
X0035273Y0088049D01*
X0035122Y0086918D01*
X0034998Y0085784D01*
X0034902Y0084648D01*
X0034833Y0083509D01*
X0034793Y0082369D01*
X0034781Y0081229D01*
X0034797Y0080088D01*
X0034840Y0078948D01*
X0034912Y0077810D01*
X0035012Y0076674D01*
X0035139Y0075540D01*
X0035294Y0074410D01*
X0035477Y0073285D01*
X0035687Y0072163D01*
X0035925Y0071048D01*
X0036190Y0069938D01*
X0036482Y0068836D01*
X0036801Y0067741D01*
X0037147Y0066654D01*
X0037519Y0065576D01*
X0037918Y0064507D01*
X0038343Y0063449D01*
X0038793Y0062401D01*
X0039269Y0061364D01*
X0039771Y0060340D01*
X0040297Y0059328D01*
X0040848Y0058329D01*
X0041423Y0057344D01*
X0042023Y0056374D01*
X0042646Y0055418D01*
X0043292Y0054478D01*
X0043961Y0053555D01*
X0044652Y0052648D01*
X0045366Y0051758D01*
X0046101Y0050886D01*
X0046857Y0050032D01*
X0047634Y0049197D01*
X0048431Y0048381D01*
X0049248Y0047585D01*
X0050085Y0046809D01*
X0050940Y0046054D01*
X0051813Y0045321D01*
X0052704Y0044608D01*
X0053612Y0043918D01*
X0054537Y0043251D01*
X0055478Y0042606D01*
X0056434Y0041985D01*
X0057405Y0041387D01*
X0058391Y0040813D01*
X0059391Y0040263D01*
X0060403Y0039739D01*
X0061429Y0039239D01*
X0062466Y0038764D01*
X0063514Y0038315D01*
X0064574Y0037892D01*
X0065643Y0037495D01*
X0066722Y0037124D01*
X0067809Y0036780D01*
X0068905Y0036463D01*
X0070008Y0036172D01*
X0071117Y0035909D01*
X0072233Y0035673D01*
X0073355Y0035465D01*
X0074481Y0035284D01*
X0075611Y0035130D01*
X0076745Y0035005D01*
X0077881Y0034907D01*
X0079020Y0034837D01*
X0080159Y0034795D01*
X0081300Y0034781D01*
X0082441Y0034795D01*
X0083580Y0034837D01*
X0084719Y0034907D01*
X0085855Y0035005D01*
X0086989Y0035130D01*
X0088119Y0035284D01*
X0089245Y0035465D01*
X0090367Y0035673D01*
X0091483Y0035909D01*
X0092592Y0036172D01*
X0093695Y0036463D01*
X0094791Y0036780D01*
X0095878Y0037124D01*
X0096957Y0037495D01*
X0098026Y0037892D01*
X0099086Y0038315D01*
X0100134Y0038764D01*
X0101171Y0039239D01*
X0102197Y0039739D01*
X0103209Y0040263D01*
X0104209Y0040813D01*
X0105195Y0041387D01*
X0106166Y0041985D01*
X0107122Y0042606D01*
X0108063Y0043251D01*
X0108988Y0043918D01*
X0109896Y0044608D01*
X0110787Y0045321D01*
X0111660Y0046054D01*
X0112515Y0046809D01*
X0113352Y0047585D01*
X0114169Y0048381D01*
X0114966Y0049197D01*
X0115743Y0050032D01*
X0116499Y0050886D01*
X0117234Y0051758D01*
X0117948Y0052648D01*
X0118639Y0053555D01*
X0119308Y0054478D01*
X0119954Y0055418D01*
X0120577Y0056374D01*
X0121177Y0057344D01*
X0121752Y0058329D01*
X0122303Y0059328D01*
X0122829Y0060340D01*
X0123331Y0061364D01*
X0123807Y0062401D01*
X0124257Y0063449D01*
X0124682Y0064507D01*
X0125081Y0065576D01*
X0125453Y0066654D01*
X0125799Y0067741D01*
X0126118Y0068836D01*
X0126410Y0069938D01*
X0126675Y0071048D01*
X0126913Y0072163D01*
X0127123Y0073285D01*
X0127306Y0074410D01*
X0127461Y0075540D01*
X0127588Y0076674D01*
X0127688Y0077810D01*
X0127760Y0078948D01*
X0127803Y0080088D01*
X0127819Y0081229D01*
X0127807Y0082369D01*
X0127767Y0083509D01*
X0127698Y0084648D01*
X0127602Y0085784D01*
X0127478Y0086918D01*
X0127327Y0088049D01*
X0127148Y0089175D01*
X0126941Y0090297D01*
X0126706Y0091413D01*
X0126445Y0092523D01*
X0126156Y0093627D01*
X0125840Y0094723D01*
X0125498Y0095811D01*
X0125129Y0096890D01*
X0124733Y0097960D01*
X0124312Y0099020D01*
X0123865Y0100069D01*
X0123392Y0101107D01*
X0122893Y0102133D01*
X0122370Y0103146D01*
X0121822Y0104147D01*
X0121250Y0105133D01*
X0120653Y0106106D01*
X0120033Y0107063D01*
X0119390Y0108005D01*
X0118724Y0108931D01*
X0118035Y0109840D01*
X0117325Y0110732D01*
X0116592Y0111606D01*
X0115839Y0112463D01*
X0115064Y0113300D01*
X0114269Y0114118D01*
X0113455Y0114917D01*
X0112621Y0115695D01*
X0111768Y0116453D01*
X0110897Y0117189D01*
X0110009Y0117904D01*
X0109102Y0118597D01*
X0108180Y0119267D01*
X0107241Y0119915D01*
X0106286Y0120539D01*
X0105317Y0121140D01*
X0104333Y0121717D01*
X0103335Y0122269D01*
X0102324Y0122797D01*
X0101300Y0123300D01*
X0101300Y0131300D01*
X0093300Y0137300D01*
X0071300Y0137300D01*
X0061300Y0131300D01*
X0061300Y0123300D01*
D11*
X0055100Y0069733D02*
X0055100Y0066933D01*
X0053700Y0068333D02*
X0056500Y0068333D01*
X0061700Y0063900D02*
X0062867Y0063900D01*
X0062932Y0063898D01*
X0062998Y0063893D01*
X0063062Y0063884D01*
X0063127Y0063871D01*
X0063190Y0063854D01*
X0063252Y0063835D01*
X0063314Y0063811D01*
X0063373Y0063784D01*
X0063431Y0063754D01*
X0063488Y0063721D01*
X0063542Y0063685D01*
X0063595Y0063645D01*
X0063645Y0063603D01*
X0063692Y0063558D01*
X0063737Y0063511D01*
X0063779Y0063461D01*
X0063819Y0063408D01*
X0063855Y0063354D01*
X0063888Y0063297D01*
X0063918Y0063239D01*
X0063945Y0063180D01*
X0063969Y0063118D01*
X0063988Y0063056D01*
X0064005Y0062993D01*
X0064018Y0062928D01*
X0064027Y0062864D01*
X0064032Y0062798D01*
X0064034Y0062733D01*
X0064033Y0062733D02*
X0064033Y0060867D01*
X0064034Y0060867D02*
X0064032Y0060802D01*
X0064027Y0060736D01*
X0064018Y0060672D01*
X0064005Y0060607D01*
X0063988Y0060544D01*
X0063969Y0060482D01*
X0063945Y0060420D01*
X0063918Y0060361D01*
X0063888Y0060303D01*
X0063855Y0060246D01*
X0063819Y0060192D01*
X0063779Y0060139D01*
X0063737Y0060089D01*
X0063692Y0060042D01*
X0063645Y0059997D01*
X0063595Y0059955D01*
X0063542Y0059915D01*
X0063488Y0059879D01*
X0063431Y0059846D01*
X0063373Y0059816D01*
X0063314Y0059789D01*
X0063252Y0059765D01*
X0063190Y0059746D01*
X0063127Y0059729D01*
X0063062Y0059716D01*
X0062998Y0059707D01*
X0062932Y0059702D01*
X0062867Y0059700D01*
X0061700Y0059700D01*
X0061700Y0063900D01*
X0068700Y0053333D02*
X0071500Y0053333D01*
D12*
X0075394Y0063379D02*
X0087206Y0063379D01*
X0094322Y0054280D02*
X0100527Y0059128D01*
X0103629Y0061552D02*
X0105491Y0063006D01*
X0108283Y0065188D02*
X0109524Y0066157D01*
X0112084Y0064160D02*
X0115235Y0060127D01*
X0116304Y0057480D02*
X0097069Y0042452D01*
X0094759Y0044130D02*
X0091365Y0048473D01*
X0090289Y0051129D02*
X0091530Y0052099D01*
X0075394Y0063576D02*
X0075394Y0064363D01*
X0075394Y0072237D02*
X0075394Y0073024D01*
X0075394Y0073221D02*
X0087206Y0073221D01*
X0087206Y0073024D02*
X0087206Y0072237D01*
X0082875Y0083032D02*
X0079725Y0083032D01*
X0075001Y0086576D02*
X0075001Y0096024D01*
X0076969Y0092875D02*
X0076969Y0089725D01*
X0076983Y0089602D01*
X0077001Y0089479D01*
X0077023Y0089356D01*
X0077049Y0089235D01*
X0077079Y0089114D01*
X0077112Y0088994D01*
X0077149Y0088876D01*
X0077190Y0088758D01*
X0077235Y0088642D01*
X0077283Y0088528D01*
X0077335Y0088415D01*
X0077390Y0088303D01*
X0077449Y0088194D01*
X0077511Y0088086D01*
X0077577Y0087981D01*
X0077645Y0087877D01*
X0077717Y0087776D01*
X0077793Y0087677D01*
X0077871Y0087580D01*
X0077952Y0087486D01*
X0078036Y0087395D01*
X0078123Y0087306D01*
X0078213Y0087220D01*
X0078305Y0087137D01*
X0078400Y0087056D01*
X0078498Y0086979D01*
X0078598Y0086905D01*
X0078700Y0086834D01*
X0078804Y0086767D01*
X0078910Y0086702D01*
X0079019Y0086641D01*
X0079129Y0086584D01*
X0079241Y0086530D01*
X0079354Y0086479D01*
X0079469Y0086432D01*
X0079586Y0086389D01*
X0079704Y0086349D01*
X0079823Y0086313D01*
X0079943Y0086281D01*
X0080064Y0086253D01*
X0080186Y0086228D01*
X0080308Y0086207D01*
X0080431Y0086191D01*
X0080555Y0086178D01*
X0080679Y0086169D01*
X0080803Y0086163D01*
X0080927Y0086162D01*
X0081052Y0086165D01*
X0081176Y0086171D01*
X0081300Y0086182D01*
X0081424Y0086171D01*
X0081548Y0086165D01*
X0081673Y0086162D01*
X0081797Y0086163D01*
X0081921Y0086169D01*
X0082045Y0086178D01*
X0082169Y0086191D01*
X0082292Y0086207D01*
X0082414Y0086228D01*
X0082536Y0086253D01*
X0082657Y0086281D01*
X0082777Y0086313D01*
X0082896Y0086349D01*
X0083014Y0086389D01*
X0083131Y0086432D01*
X0083246Y0086479D01*
X0083359Y0086530D01*
X0083471Y0086584D01*
X0083581Y0086641D01*
X0083690Y0086702D01*
X0083796Y0086767D01*
X0083900Y0086834D01*
X0084002Y0086905D01*
X0084102Y0086979D01*
X0084200Y0087056D01*
X0084295Y0087137D01*
X0084387Y0087220D01*
X0084477Y0087306D01*
X0084564Y0087395D01*
X0084648Y0087486D01*
X0084729Y0087580D01*
X0084807Y0087677D01*
X0084883Y0087776D01*
X0084955Y0087877D01*
X0085023Y0087981D01*
X0085089Y0088086D01*
X0085151Y0088194D01*
X0085210Y0088303D01*
X0085265Y0088415D01*
X0085317Y0088528D01*
X0085365Y0088642D01*
X0085410Y0088758D01*
X0085451Y0088876D01*
X0085488Y0088994D01*
X0085521Y0089114D01*
X0085551Y0089235D01*
X0085577Y0089356D01*
X0085599Y0089479D01*
X0085617Y0089602D01*
X0085631Y0089725D01*
X0085631Y0092875D01*
X0087599Y0096024D02*
X0087599Y0086576D01*
X0085631Y0092875D02*
X0085617Y0092998D01*
X0085599Y0093121D01*
X0085577Y0093244D01*
X0085551Y0093365D01*
X0085521Y0093486D01*
X0085488Y0093606D01*
X0085451Y0093724D01*
X0085410Y0093842D01*
X0085365Y0093958D01*
X0085317Y0094072D01*
X0085265Y0094185D01*
X0085210Y0094297D01*
X0085151Y0094406D01*
X0085089Y0094514D01*
X0085023Y0094619D01*
X0084955Y0094723D01*
X0084883Y0094824D01*
X0084807Y0094923D01*
X0084729Y0095020D01*
X0084648Y0095114D01*
X0084564Y0095205D01*
X0084477Y0095294D01*
X0084387Y0095380D01*
X0084295Y0095463D01*
X0084200Y0095544D01*
X0084102Y0095621D01*
X0084002Y0095695D01*
X0083900Y0095766D01*
X0083796Y0095833D01*
X0083690Y0095898D01*
X0083581Y0095959D01*
X0083471Y0096016D01*
X0083359Y0096070D01*
X0083246Y0096121D01*
X0083131Y0096168D01*
X0083014Y0096211D01*
X0082896Y0096251D01*
X0082777Y0096287D01*
X0082657Y0096319D01*
X0082536Y0096347D01*
X0082414Y0096372D01*
X0082292Y0096393D01*
X0082169Y0096409D01*
X0082045Y0096422D01*
X0081921Y0096431D01*
X0081797Y0096437D01*
X0081673Y0096438D01*
X0081548Y0096435D01*
X0081424Y0096429D01*
X0081300Y0096418D01*
X0082875Y0099568D02*
X0079725Y0099568D01*
X0081300Y0096418D02*
X0081176Y0096429D01*
X0081052Y0096435D01*
X0080927Y0096438D01*
X0080803Y0096437D01*
X0080679Y0096431D01*
X0080555Y0096422D01*
X0080431Y0096409D01*
X0080308Y0096393D01*
X0080186Y0096372D01*
X0080064Y0096347D01*
X0079943Y0096319D01*
X0079823Y0096287D01*
X0079704Y0096251D01*
X0079586Y0096211D01*
X0079469Y0096168D01*
X0079354Y0096121D01*
X0079241Y0096070D01*
X0079129Y0096016D01*
X0079019Y0095959D01*
X0078910Y0095898D01*
X0078804Y0095833D01*
X0078700Y0095766D01*
X0078598Y0095695D01*
X0078498Y0095621D01*
X0078400Y0095544D01*
X0078305Y0095463D01*
X0078213Y0095380D01*
X0078123Y0095294D01*
X0078036Y0095205D01*
X0077952Y0095114D01*
X0077871Y0095020D01*
X0077793Y0094923D01*
X0077717Y0094824D01*
X0077645Y0094723D01*
X0077577Y0094619D01*
X0077511Y0094514D01*
X0077449Y0094406D01*
X0077390Y0094297D01*
X0077335Y0094185D01*
X0077283Y0094072D01*
X0077235Y0093958D01*
X0077190Y0093842D01*
X0077149Y0093724D01*
X0077112Y0093606D01*
X0077079Y0093486D01*
X0077049Y0093365D01*
X0077023Y0093244D01*
X0077001Y0093121D01*
X0076983Y0092998D01*
X0076969Y0092875D01*
X0062599Y0096024D02*
X0062599Y0086576D01*
X0060631Y0089725D02*
X0060631Y0092875D01*
X0060617Y0092998D01*
X0060599Y0093121D01*
X0060577Y0093244D01*
X0060551Y0093365D01*
X0060521Y0093486D01*
X0060488Y0093606D01*
X0060451Y0093724D01*
X0060410Y0093842D01*
X0060365Y0093958D01*
X0060317Y0094072D01*
X0060265Y0094185D01*
X0060210Y0094297D01*
X0060151Y0094406D01*
X0060089Y0094514D01*
X0060023Y0094619D01*
X0059955Y0094723D01*
X0059883Y0094824D01*
X0059807Y0094923D01*
X0059729Y0095020D01*
X0059648Y0095114D01*
X0059564Y0095205D01*
X0059477Y0095294D01*
X0059387Y0095380D01*
X0059295Y0095463D01*
X0059200Y0095544D01*
X0059102Y0095621D01*
X0059002Y0095695D01*
X0058900Y0095766D01*
X0058796Y0095833D01*
X0058690Y0095898D01*
X0058581Y0095959D01*
X0058471Y0096016D01*
X0058359Y0096070D01*
X0058246Y0096121D01*
X0058131Y0096168D01*
X0058014Y0096211D01*
X0057896Y0096251D01*
X0057777Y0096287D01*
X0057657Y0096319D01*
X0057536Y0096347D01*
X0057414Y0096372D01*
X0057292Y0096393D01*
X0057169Y0096409D01*
X0057045Y0096422D01*
X0056921Y0096431D01*
X0056797Y0096437D01*
X0056673Y0096438D01*
X0056548Y0096435D01*
X0056424Y0096429D01*
X0056300Y0096418D01*
X0057875Y0099568D02*
X0054725Y0099568D01*
X0050001Y0096024D02*
X0050001Y0086576D01*
X0051969Y0089725D02*
X0051969Y0092875D01*
X0051983Y0092998D01*
X0052001Y0093121D01*
X0052023Y0093244D01*
X0052049Y0093365D01*
X0052079Y0093486D01*
X0052112Y0093606D01*
X0052149Y0093724D01*
X0052190Y0093842D01*
X0052235Y0093958D01*
X0052283Y0094072D01*
X0052335Y0094185D01*
X0052390Y0094297D01*
X0052449Y0094406D01*
X0052511Y0094514D01*
X0052577Y0094619D01*
X0052645Y0094723D01*
X0052717Y0094824D01*
X0052793Y0094923D01*
X0052871Y0095020D01*
X0052952Y0095114D01*
X0053036Y0095205D01*
X0053123Y0095294D01*
X0053213Y0095380D01*
X0053305Y0095463D01*
X0053400Y0095544D01*
X0053498Y0095621D01*
X0053598Y0095695D01*
X0053700Y0095766D01*
X0053804Y0095833D01*
X0053910Y0095898D01*
X0054019Y0095959D01*
X0054129Y0096016D01*
X0054241Y0096070D01*
X0054354Y0096121D01*
X0054469Y0096168D01*
X0054586Y0096211D01*
X0054704Y0096251D01*
X0054823Y0096287D01*
X0054943Y0096319D01*
X0055064Y0096347D01*
X0055186Y0096372D01*
X0055308Y0096393D01*
X0055431Y0096409D01*
X0055555Y0096422D01*
X0055679Y0096431D01*
X0055803Y0096437D01*
X0055927Y0096438D01*
X0056052Y0096435D01*
X0056176Y0096429D01*
X0056300Y0096418D01*
X0051969Y0089725D02*
X0051983Y0089602D01*
X0052001Y0089479D01*
X0052023Y0089356D01*
X0052049Y0089235D01*
X0052079Y0089114D01*
X0052112Y0088994D01*
X0052149Y0088876D01*
X0052190Y0088758D01*
X0052235Y0088642D01*
X0052283Y0088528D01*
X0052335Y0088415D01*
X0052390Y0088303D01*
X0052449Y0088194D01*
X0052511Y0088086D01*
X0052577Y0087981D01*
X0052645Y0087877D01*
X0052717Y0087776D01*
X0052793Y0087677D01*
X0052871Y0087580D01*
X0052952Y0087486D01*
X0053036Y0087395D01*
X0053123Y0087306D01*
X0053213Y0087220D01*
X0053305Y0087137D01*
X0053400Y0087056D01*
X0053498Y0086979D01*
X0053598Y0086905D01*
X0053700Y0086834D01*
X0053804Y0086767D01*
X0053910Y0086702D01*
X0054019Y0086641D01*
X0054129Y0086584D01*
X0054241Y0086530D01*
X0054354Y0086479D01*
X0054469Y0086432D01*
X0054586Y0086389D01*
X0054704Y0086349D01*
X0054823Y0086313D01*
X0054943Y0086281D01*
X0055064Y0086253D01*
X0055186Y0086228D01*
X0055308Y0086207D01*
X0055431Y0086191D01*
X0055555Y0086178D01*
X0055679Y0086169D01*
X0055803Y0086163D01*
X0055927Y0086162D01*
X0056052Y0086165D01*
X0056176Y0086171D01*
X0056300Y0086182D01*
X0054725Y0083032D02*
X0057875Y0083032D01*
X0056300Y0086182D02*
X0056424Y0086171D01*
X0056548Y0086165D01*
X0056673Y0086162D01*
X0056797Y0086163D01*
X0056921Y0086169D01*
X0057045Y0086178D01*
X0057169Y0086191D01*
X0057292Y0086207D01*
X0057414Y0086228D01*
X0057536Y0086253D01*
X0057657Y0086281D01*
X0057777Y0086313D01*
X0057896Y0086349D01*
X0058014Y0086389D01*
X0058131Y0086432D01*
X0058246Y0086479D01*
X0058359Y0086530D01*
X0058471Y0086584D01*
X0058581Y0086641D01*
X0058690Y0086702D01*
X0058796Y0086767D01*
X0058900Y0086834D01*
X0059002Y0086905D01*
X0059102Y0086979D01*
X0059200Y0087056D01*
X0059295Y0087137D01*
X0059387Y0087220D01*
X0059477Y0087306D01*
X0059564Y0087395D01*
X0059648Y0087486D01*
X0059729Y0087580D01*
X0059807Y0087677D01*
X0059883Y0087776D01*
X0059955Y0087877D01*
X0060023Y0087981D01*
X0060089Y0088086D01*
X0060151Y0088194D01*
X0060210Y0088303D01*
X0060265Y0088415D01*
X0060317Y0088528D01*
X0060365Y0088642D01*
X0060410Y0088758D01*
X0060451Y0088876D01*
X0060488Y0088994D01*
X0060521Y0089114D01*
X0060551Y0089235D01*
X0060577Y0089356D01*
X0060599Y0089479D01*
X0060617Y0089602D01*
X0060631Y0089725D01*
X0100001Y0086576D02*
X0100001Y0096024D01*
X0101969Y0092875D02*
X0101969Y0089725D01*
X0101983Y0089602D01*
X0102001Y0089479D01*
X0102023Y0089356D01*
X0102049Y0089235D01*
X0102079Y0089114D01*
X0102112Y0088994D01*
X0102149Y0088876D01*
X0102190Y0088758D01*
X0102235Y0088642D01*
X0102283Y0088528D01*
X0102335Y0088415D01*
X0102390Y0088303D01*
X0102449Y0088194D01*
X0102511Y0088086D01*
X0102577Y0087981D01*
X0102645Y0087877D01*
X0102717Y0087776D01*
X0102793Y0087677D01*
X0102871Y0087580D01*
X0102952Y0087486D01*
X0103036Y0087395D01*
X0103123Y0087306D01*
X0103213Y0087220D01*
X0103305Y0087137D01*
X0103400Y0087056D01*
X0103498Y0086979D01*
X0103598Y0086905D01*
X0103700Y0086834D01*
X0103804Y0086767D01*
X0103910Y0086702D01*
X0104019Y0086641D01*
X0104129Y0086584D01*
X0104241Y0086530D01*
X0104354Y0086479D01*
X0104469Y0086432D01*
X0104586Y0086389D01*
X0104704Y0086349D01*
X0104823Y0086313D01*
X0104943Y0086281D01*
X0105064Y0086253D01*
X0105186Y0086228D01*
X0105308Y0086207D01*
X0105431Y0086191D01*
X0105555Y0086178D01*
X0105679Y0086169D01*
X0105803Y0086163D01*
X0105927Y0086162D01*
X0106052Y0086165D01*
X0106176Y0086171D01*
X0106300Y0086182D01*
X0104725Y0083032D02*
X0107875Y0083032D01*
X0112599Y0086576D02*
X0112599Y0096024D01*
X0110631Y0092875D02*
X0110631Y0089725D01*
X0110617Y0089602D01*
X0110599Y0089479D01*
X0110577Y0089356D01*
X0110551Y0089235D01*
X0110521Y0089114D01*
X0110488Y0088994D01*
X0110451Y0088876D01*
X0110410Y0088758D01*
X0110365Y0088642D01*
X0110317Y0088528D01*
X0110265Y0088415D01*
X0110210Y0088303D01*
X0110151Y0088194D01*
X0110089Y0088086D01*
X0110023Y0087981D01*
X0109955Y0087877D01*
X0109883Y0087776D01*
X0109807Y0087677D01*
X0109729Y0087580D01*
X0109648Y0087486D01*
X0109564Y0087395D01*
X0109477Y0087306D01*
X0109387Y0087220D01*
X0109295Y0087137D01*
X0109200Y0087056D01*
X0109102Y0086979D01*
X0109002Y0086905D01*
X0108900Y0086834D01*
X0108796Y0086767D01*
X0108690Y0086702D01*
X0108581Y0086641D01*
X0108471Y0086584D01*
X0108359Y0086530D01*
X0108246Y0086479D01*
X0108131Y0086432D01*
X0108014Y0086389D01*
X0107896Y0086349D01*
X0107777Y0086313D01*
X0107657Y0086281D01*
X0107536Y0086253D01*
X0107414Y0086228D01*
X0107292Y0086207D01*
X0107169Y0086191D01*
X0107045Y0086178D01*
X0106921Y0086169D01*
X0106797Y0086163D01*
X0106673Y0086162D01*
X0106548Y0086165D01*
X0106424Y0086171D01*
X0106300Y0086182D01*
X0110631Y0092875D02*
X0110617Y0092998D01*
X0110599Y0093121D01*
X0110577Y0093244D01*
X0110551Y0093365D01*
X0110521Y0093486D01*
X0110488Y0093606D01*
X0110451Y0093724D01*
X0110410Y0093842D01*
X0110365Y0093958D01*
X0110317Y0094072D01*
X0110265Y0094185D01*
X0110210Y0094297D01*
X0110151Y0094406D01*
X0110089Y0094514D01*
X0110023Y0094619D01*
X0109955Y0094723D01*
X0109883Y0094824D01*
X0109807Y0094923D01*
X0109729Y0095020D01*
X0109648Y0095114D01*
X0109564Y0095205D01*
X0109477Y0095294D01*
X0109387Y0095380D01*
X0109295Y0095463D01*
X0109200Y0095544D01*
X0109102Y0095621D01*
X0109002Y0095695D01*
X0108900Y0095766D01*
X0108796Y0095833D01*
X0108690Y0095898D01*
X0108581Y0095959D01*
X0108471Y0096016D01*
X0108359Y0096070D01*
X0108246Y0096121D01*
X0108131Y0096168D01*
X0108014Y0096211D01*
X0107896Y0096251D01*
X0107777Y0096287D01*
X0107657Y0096319D01*
X0107536Y0096347D01*
X0107414Y0096372D01*
X0107292Y0096393D01*
X0107169Y0096409D01*
X0107045Y0096422D01*
X0106921Y0096431D01*
X0106797Y0096437D01*
X0106673Y0096438D01*
X0106548Y0096435D01*
X0106424Y0096429D01*
X0106300Y0096418D01*
X0107875Y0099568D02*
X0104725Y0099568D01*
X0106300Y0096418D02*
X0106176Y0096429D01*
X0106052Y0096435D01*
X0105927Y0096438D01*
X0105803Y0096437D01*
X0105679Y0096431D01*
X0105555Y0096422D01*
X0105431Y0096409D01*
X0105308Y0096393D01*
X0105186Y0096372D01*
X0105064Y0096347D01*
X0104943Y0096319D01*
X0104823Y0096287D01*
X0104704Y0096251D01*
X0104586Y0096211D01*
X0104469Y0096168D01*
X0104354Y0096121D01*
X0104241Y0096070D01*
X0104129Y0096016D01*
X0104019Y0095959D01*
X0103910Y0095898D01*
X0103804Y0095833D01*
X0103700Y0095766D01*
X0103598Y0095695D01*
X0103498Y0095621D01*
X0103400Y0095544D01*
X0103305Y0095463D01*
X0103213Y0095380D01*
X0103123Y0095294D01*
X0103036Y0095205D01*
X0102952Y0095114D01*
X0102871Y0095020D01*
X0102793Y0094923D01*
X0102717Y0094824D01*
X0102645Y0094723D01*
X0102577Y0094619D01*
X0102511Y0094514D01*
X0102449Y0094406D01*
X0102390Y0094297D01*
X0102335Y0094185D01*
X0102283Y0094072D01*
X0102235Y0093958D01*
X0102190Y0093842D01*
X0102149Y0093724D01*
X0102112Y0093606D01*
X0102079Y0093486D01*
X0102049Y0093365D01*
X0102023Y0093244D01*
X0102001Y0093121D01*
X0101983Y0092998D01*
X0101969Y0092875D01*
D13*
G36*
X0105700Y0059348D02*
X0108779Y0055408D01*
X0100900Y0049252D01*
X0097821Y0053192D01*
X0105700Y0059348D01*
G37*
D14*
X0106428Y0057994D02*
X0106430Y0058074D01*
X0106436Y0058153D01*
X0106446Y0058232D01*
X0106460Y0058311D01*
X0106477Y0058389D01*
X0106499Y0058466D01*
X0106524Y0058541D01*
X0106554Y0058615D01*
X0106586Y0058688D01*
X0106623Y0058759D01*
X0106663Y0058828D01*
X0106706Y0058895D01*
X0106753Y0058960D01*
X0106802Y0059022D01*
X0106855Y0059082D01*
X0106911Y0059139D01*
X0106969Y0059194D01*
X0107030Y0059245D01*
X0107094Y0059293D01*
X0107160Y0059338D01*
X0107228Y0059380D01*
X0107298Y0059418D01*
X0107370Y0059452D01*
X0107443Y0059483D01*
X0107518Y0059511D01*
X0107595Y0059534D01*
X0107672Y0059554D01*
X0107750Y0059570D01*
X0107829Y0059582D01*
X0107908Y0059590D01*
X0107988Y0059594D01*
X0108068Y0059594D01*
X0108148Y0059590D01*
X0108227Y0059582D01*
X0108306Y0059570D01*
X0108384Y0059554D01*
X0108461Y0059534D01*
X0108538Y0059511D01*
X0108613Y0059483D01*
X0108686Y0059452D01*
X0108758Y0059418D01*
X0108828Y0059380D01*
X0108896Y0059338D01*
X0108962Y0059293D01*
X0109026Y0059245D01*
X0109087Y0059194D01*
X0109145Y0059139D01*
X0109201Y0059082D01*
X0109254Y0059022D01*
X0109303Y0058960D01*
X0109350Y0058895D01*
X0109393Y0058828D01*
X0109433Y0058759D01*
X0109470Y0058688D01*
X0109502Y0058615D01*
X0109532Y0058541D01*
X0109557Y0058466D01*
X0109579Y0058389D01*
X0109596Y0058311D01*
X0109610Y0058232D01*
X0109620Y0058153D01*
X0109626Y0058074D01*
X0109628Y0057994D01*
X0109626Y0057914D01*
X0109620Y0057835D01*
X0109610Y0057756D01*
X0109596Y0057677D01*
X0109579Y0057599D01*
X0109557Y0057522D01*
X0109532Y0057447D01*
X0109502Y0057373D01*
X0109470Y0057300D01*
X0109433Y0057229D01*
X0109393Y0057160D01*
X0109350Y0057093D01*
X0109303Y0057028D01*
X0109254Y0056966D01*
X0109201Y0056906D01*
X0109145Y0056849D01*
X0109087Y0056794D01*
X0109026Y0056743D01*
X0108962Y0056695D01*
X0108896Y0056650D01*
X0108828Y0056608D01*
X0108758Y0056570D01*
X0108686Y0056536D01*
X0108613Y0056505D01*
X0108538Y0056477D01*
X0108461Y0056454D01*
X0108384Y0056434D01*
X0108306Y0056418D01*
X0108227Y0056406D01*
X0108148Y0056398D01*
X0108068Y0056394D01*
X0107988Y0056394D01*
X0107908Y0056398D01*
X0107829Y0056406D01*
X0107750Y0056418D01*
X0107672Y0056434D01*
X0107595Y0056454D01*
X0107518Y0056477D01*
X0107443Y0056505D01*
X0107370Y0056536D01*
X0107298Y0056570D01*
X0107228Y0056608D01*
X0107160Y0056650D01*
X0107094Y0056695D01*
X0107030Y0056743D01*
X0106969Y0056794D01*
X0106911Y0056849D01*
X0106855Y0056906D01*
X0106802Y0056966D01*
X0106753Y0057028D01*
X0106706Y0057093D01*
X0106663Y0057160D01*
X0106623Y0057229D01*
X0106586Y0057300D01*
X0106554Y0057373D01*
X0106524Y0057447D01*
X0106499Y0057522D01*
X0106477Y0057599D01*
X0106460Y0057677D01*
X0106446Y0057756D01*
X0106436Y0057835D01*
X0106430Y0057914D01*
X0106428Y0057994D01*
X0096972Y0050606D02*
X0096974Y0050686D01*
X0096980Y0050765D01*
X0096990Y0050844D01*
X0097004Y0050923D01*
X0097021Y0051001D01*
X0097043Y0051078D01*
X0097068Y0051153D01*
X0097098Y0051227D01*
X0097130Y0051300D01*
X0097167Y0051371D01*
X0097207Y0051440D01*
X0097250Y0051507D01*
X0097297Y0051572D01*
X0097346Y0051634D01*
X0097399Y0051694D01*
X0097455Y0051751D01*
X0097513Y0051806D01*
X0097574Y0051857D01*
X0097638Y0051905D01*
X0097704Y0051950D01*
X0097772Y0051992D01*
X0097842Y0052030D01*
X0097914Y0052064D01*
X0097987Y0052095D01*
X0098062Y0052123D01*
X0098139Y0052146D01*
X0098216Y0052166D01*
X0098294Y0052182D01*
X0098373Y0052194D01*
X0098452Y0052202D01*
X0098532Y0052206D01*
X0098612Y0052206D01*
X0098692Y0052202D01*
X0098771Y0052194D01*
X0098850Y0052182D01*
X0098928Y0052166D01*
X0099005Y0052146D01*
X0099082Y0052123D01*
X0099157Y0052095D01*
X0099230Y0052064D01*
X0099302Y0052030D01*
X0099372Y0051992D01*
X0099440Y0051950D01*
X0099506Y0051905D01*
X0099570Y0051857D01*
X0099631Y0051806D01*
X0099689Y0051751D01*
X0099745Y0051694D01*
X0099798Y0051634D01*
X0099847Y0051572D01*
X0099894Y0051507D01*
X0099937Y0051440D01*
X0099977Y0051371D01*
X0100014Y0051300D01*
X0100046Y0051227D01*
X0100076Y0051153D01*
X0100101Y0051078D01*
X0100123Y0051001D01*
X0100140Y0050923D01*
X0100154Y0050844D01*
X0100164Y0050765D01*
X0100170Y0050686D01*
X0100172Y0050606D01*
X0100170Y0050526D01*
X0100164Y0050447D01*
X0100154Y0050368D01*
X0100140Y0050289D01*
X0100123Y0050211D01*
X0100101Y0050134D01*
X0100076Y0050059D01*
X0100046Y0049985D01*
X0100014Y0049912D01*
X0099977Y0049841D01*
X0099937Y0049772D01*
X0099894Y0049705D01*
X0099847Y0049640D01*
X0099798Y0049578D01*
X0099745Y0049518D01*
X0099689Y0049461D01*
X0099631Y0049406D01*
X0099570Y0049355D01*
X0099506Y0049307D01*
X0099440Y0049262D01*
X0099372Y0049220D01*
X0099302Y0049182D01*
X0099230Y0049148D01*
X0099157Y0049117D01*
X0099082Y0049089D01*
X0099005Y0049066D01*
X0098928Y0049046D01*
X0098850Y0049030D01*
X0098771Y0049018D01*
X0098692Y0049010D01*
X0098612Y0049006D01*
X0098532Y0049006D01*
X0098452Y0049010D01*
X0098373Y0049018D01*
X0098294Y0049030D01*
X0098216Y0049046D01*
X0098139Y0049066D01*
X0098062Y0049089D01*
X0097987Y0049117D01*
X0097914Y0049148D01*
X0097842Y0049182D01*
X0097772Y0049220D01*
X0097704Y0049262D01*
X0097638Y0049307D01*
X0097574Y0049355D01*
X0097513Y0049406D01*
X0097455Y0049461D01*
X0097399Y0049518D01*
X0097346Y0049578D01*
X0097297Y0049640D01*
X0097250Y0049705D01*
X0097207Y0049772D01*
X0097167Y0049841D01*
X0097130Y0049912D01*
X0097098Y0049985D01*
X0097068Y0050059D01*
X0097043Y0050134D01*
X0097021Y0050211D01*
X0097004Y0050289D01*
X0096990Y0050368D01*
X0096980Y0050447D01*
X0096974Y0050526D01*
X0096972Y0050606D01*
D15*
X0101202Y0110611D02*
X0100611Y0111202D01*
X0101300Y0111891D01*
X0101891Y0111300D01*
X0101202Y0110611D01*
X0081891Y0114300D02*
X0081202Y0113611D01*
X0080611Y0114202D01*
X0081300Y0114891D01*
X0081891Y0114300D01*
X0060891Y0111300D02*
X0060202Y0110611D01*
X0059611Y0111202D01*
X0060300Y0111891D01*
X0060891Y0111300D01*
D16*
X0059217Y0112875D03*
X0080217Y0115875D03*
X0100217Y0112875D03*
D17*
X0096064Y0123190D02*
X0096064Y0133524D01*
X0066536Y0133524D02*
X0066536Y0123190D01*
X0036418Y0081457D02*
X0036432Y0082558D01*
X0036472Y0083659D01*
X0036540Y0084759D01*
X0036634Y0085856D01*
X0036756Y0086951D01*
X0036904Y0088043D01*
X0037079Y0089130D01*
X0037280Y0090213D01*
X0037509Y0091291D01*
X0037763Y0092362D01*
X0038044Y0093428D01*
X0038351Y0094486D01*
X0038683Y0095536D01*
X0039042Y0096577D01*
X0039425Y0097610D01*
X0039834Y0098633D01*
X0040268Y0099645D01*
X0040727Y0100647D01*
X0041210Y0101636D01*
X0041718Y0102614D01*
X0042249Y0103579D01*
X0042803Y0104531D01*
X0043381Y0105469D01*
X0043982Y0106392D01*
X0044605Y0107300D01*
X0045250Y0108193D01*
X0045917Y0109070D01*
X0046606Y0109930D01*
X0047315Y0110773D01*
X0048045Y0111598D01*
X0048794Y0112405D01*
X0049564Y0113193D01*
X0050352Y0113963D01*
X0051159Y0114712D01*
X0051984Y0115442D01*
X0052827Y0116151D01*
X0053687Y0116840D01*
X0054564Y0117507D01*
X0055457Y0118152D01*
X0056365Y0118775D01*
X0057288Y0119376D01*
X0058226Y0119954D01*
X0059178Y0120508D01*
X0060143Y0121039D01*
X0061121Y0121547D01*
X0062110Y0122030D01*
X0063112Y0122489D01*
X0064124Y0122923D01*
X0065147Y0123332D01*
X0066180Y0123715D01*
X0067221Y0124074D01*
X0068271Y0124406D01*
X0069329Y0124713D01*
X0070395Y0124994D01*
X0071466Y0125248D01*
X0072544Y0125477D01*
X0073627Y0125678D01*
X0074714Y0125853D01*
X0075806Y0126001D01*
X0076901Y0126123D01*
X0077998Y0126217D01*
X0079098Y0126285D01*
X0080199Y0126325D01*
X0081300Y0126339D01*
X0082401Y0126325D01*
X0083502Y0126285D01*
X0084602Y0126217D01*
X0085699Y0126123D01*
X0086794Y0126001D01*
X0087886Y0125853D01*
X0088973Y0125678D01*
X0090056Y0125477D01*
X0091134Y0125248D01*
X0092205Y0124994D01*
X0093271Y0124713D01*
X0094329Y0124406D01*
X0095379Y0124074D01*
X0096420Y0123715D01*
X0097453Y0123332D01*
X0098476Y0122923D01*
X0099488Y0122489D01*
X0100490Y0122030D01*
X0101479Y0121547D01*
X0102457Y0121039D01*
X0103422Y0120508D01*
X0104374Y0119954D01*
X0105312Y0119376D01*
X0106235Y0118775D01*
X0107143Y0118152D01*
X0108036Y0117507D01*
X0108913Y0116840D01*
X0109773Y0116151D01*
X0110616Y0115442D01*
X0111441Y0114712D01*
X0112248Y0113963D01*
X0113036Y0113193D01*
X0113806Y0112405D01*
X0114555Y0111598D01*
X0115285Y0110773D01*
X0115994Y0109930D01*
X0116683Y0109070D01*
X0117350Y0108193D01*
X0117995Y0107300D01*
X0118618Y0106392D01*
X0119219Y0105469D01*
X0119797Y0104531D01*
X0120351Y0103579D01*
X0120882Y0102614D01*
X0121390Y0101636D01*
X0121873Y0100647D01*
X0122332Y0099645D01*
X0122766Y0098633D01*
X0123175Y0097610D01*
X0123558Y0096577D01*
X0123917Y0095536D01*
X0124249Y0094486D01*
X0124556Y0093428D01*
X0124837Y0092362D01*
X0125091Y0091291D01*
X0125320Y0090213D01*
X0125521Y0089130D01*
X0125696Y0088043D01*
X0125844Y0086951D01*
X0125966Y0085856D01*
X0126060Y0084759D01*
X0126128Y0083659D01*
X0126168Y0082558D01*
X0126182Y0081457D01*
X0126168Y0080356D01*
X0126128Y0079255D01*
X0126060Y0078155D01*
X0125966Y0077058D01*
X0125844Y0075963D01*
X0125696Y0074871D01*
X0125521Y0073784D01*
X0125320Y0072701D01*
X0125091Y0071623D01*
X0124837Y0070552D01*
X0124556Y0069486D01*
X0124249Y0068428D01*
X0123917Y0067378D01*
X0123558Y0066337D01*
X0123175Y0065304D01*
X0122766Y0064281D01*
X0122332Y0063269D01*
X0121873Y0062267D01*
X0121390Y0061278D01*
X0120882Y0060300D01*
X0120351Y0059335D01*
X0119797Y0058383D01*
X0119219Y0057445D01*
X0118618Y0056522D01*
X0117995Y0055614D01*
X0117350Y0054721D01*
X0116683Y0053844D01*
X0115994Y0052984D01*
X0115285Y0052141D01*
X0114555Y0051316D01*
X0113806Y0050509D01*
X0113036Y0049721D01*
X0112248Y0048951D01*
X0111441Y0048202D01*
X0110616Y0047472D01*
X0109773Y0046763D01*
X0108913Y0046074D01*
X0108036Y0045407D01*
X0107143Y0044762D01*
X0106235Y0044139D01*
X0105312Y0043538D01*
X0104374Y0042960D01*
X0103422Y0042406D01*
X0102457Y0041875D01*
X0101479Y0041367D01*
X0100490Y0040884D01*
X0099488Y0040425D01*
X0098476Y0039991D01*
X0097453Y0039582D01*
X0096420Y0039199D01*
X0095379Y0038840D01*
X0094329Y0038508D01*
X0093271Y0038201D01*
X0092205Y0037920D01*
X0091134Y0037666D01*
X0090056Y0037437D01*
X0088973Y0037236D01*
X0087886Y0037061D01*
X0086794Y0036913D01*
X0085699Y0036791D01*
X0084602Y0036697D01*
X0083502Y0036629D01*
X0082401Y0036589D01*
X0081300Y0036575D01*
X0080199Y0036589D01*
X0079098Y0036629D01*
X0077998Y0036697D01*
X0076901Y0036791D01*
X0075806Y0036913D01*
X0074714Y0037061D01*
X0073627Y0037236D01*
X0072544Y0037437D01*
X0071466Y0037666D01*
X0070395Y0037920D01*
X0069329Y0038201D01*
X0068271Y0038508D01*
X0067221Y0038840D01*
X0066180Y0039199D01*
X0065147Y0039582D01*
X0064124Y0039991D01*
X0063112Y0040425D01*
X0062110Y0040884D01*
X0061121Y0041367D01*
X0060143Y0041875D01*
X0059178Y0042406D01*
X0058226Y0042960D01*
X0057288Y0043538D01*
X0056365Y0044139D01*
X0055457Y0044762D01*
X0054564Y0045407D01*
X0053687Y0046074D01*
X0052827Y0046763D01*
X0051984Y0047472D01*
X0051159Y0048202D01*
X0050352Y0048951D01*
X0049564Y0049721D01*
X0048794Y0050509D01*
X0048045Y0051316D01*
X0047315Y0052141D01*
X0046606Y0052984D01*
X0045917Y0053844D01*
X0045250Y0054721D01*
X0044605Y0055614D01*
X0043982Y0056522D01*
X0043381Y0057445D01*
X0042803Y0058383D01*
X0042249Y0059335D01*
X0041718Y0060300D01*
X0041210Y0061278D01*
X0040727Y0062267D01*
X0040268Y0063269D01*
X0039834Y0064281D01*
X0039425Y0065304D01*
X0039042Y0066337D01*
X0038683Y0067378D01*
X0038351Y0068428D01*
X0038044Y0069486D01*
X0037763Y0070552D01*
X0037509Y0071623D01*
X0037280Y0072701D01*
X0037079Y0073784D01*
X0036904Y0074871D01*
X0036756Y0075963D01*
X0036634Y0077058D01*
X0036540Y0078155D01*
X0036472Y0079255D01*
X0036432Y0080356D01*
X0036418Y0081457D01*
M02*
