G75*
%MOIN*%
%OFA0B0*%
%FSLAX25Y25*%
%IPPOS*%
%LPD*%
%AMOC8*
5,1,8,0,0,1.08239X$1,22.5*
%
%ADD10C,0.00600*%
%ADD11C,0.00000*%
D10*
X0061300Y0123300D02*
X0060276Y0122797D01*
X0059265Y0122269D01*
X0058267Y0121717D01*
X0057283Y0121140D01*
X0056314Y0120539D01*
X0055359Y0119915D01*
X0054420Y0119267D01*
X0053498Y0118597D01*
X0052591Y0117904D01*
X0051703Y0117189D01*
X0050832Y0116453D01*
X0049979Y0115695D01*
X0049145Y0114917D01*
X0048331Y0114118D01*
X0047536Y0113300D01*
X0046761Y0112463D01*
X0046008Y0111606D01*
X0045275Y0110732D01*
X0044565Y0109840D01*
X0043876Y0108931D01*
X0043210Y0108005D01*
X0042567Y0107063D01*
X0041947Y0106106D01*
X0041350Y0105133D01*
X0040778Y0104147D01*
X0040230Y0103146D01*
X0039707Y0102133D01*
X0039208Y0101107D01*
X0038735Y0100069D01*
X0038288Y0099020D01*
X0037867Y0097960D01*
X0037471Y0096890D01*
X0037102Y0095811D01*
X0036760Y0094723D01*
X0036444Y0093627D01*
X0036155Y0092523D01*
X0035894Y0091413D01*
X0035659Y0090297D01*
X0035452Y0089175D01*
X0035273Y0088049D01*
X0035122Y0086918D01*
X0034998Y0085784D01*
X0034902Y0084648D01*
X0034833Y0083509D01*
X0034793Y0082369D01*
X0034781Y0081229D01*
X0034797Y0080088D01*
X0034840Y0078948D01*
X0034912Y0077810D01*
X0035012Y0076674D01*
X0035139Y0075540D01*
X0035294Y0074410D01*
X0035477Y0073285D01*
X0035687Y0072163D01*
X0035925Y0071048D01*
X0036190Y0069938D01*
X0036482Y0068836D01*
X0036801Y0067741D01*
X0037147Y0066654D01*
X0037519Y0065576D01*
X0037918Y0064507D01*
X0038343Y0063449D01*
X0038793Y0062401D01*
X0039269Y0061364D01*
X0039771Y0060340D01*
X0040297Y0059328D01*
X0040848Y0058329D01*
X0041423Y0057344D01*
X0042023Y0056374D01*
X0042646Y0055418D01*
X0043292Y0054478D01*
X0043961Y0053555D01*
X0044652Y0052648D01*
X0045366Y0051758D01*
X0046101Y0050886D01*
X0046857Y0050032D01*
X0047634Y0049197D01*
X0048431Y0048381D01*
X0049248Y0047585D01*
X0050085Y0046809D01*
X0050940Y0046054D01*
X0051813Y0045321D01*
X0052704Y0044608D01*
X0053612Y0043918D01*
X0054537Y0043251D01*
X0055478Y0042606D01*
X0056434Y0041985D01*
X0057405Y0041387D01*
X0058391Y0040813D01*
X0059391Y0040263D01*
X0060403Y0039739D01*
X0061429Y0039239D01*
X0062466Y0038764D01*
X0063514Y0038315D01*
X0064574Y0037892D01*
X0065643Y0037495D01*
X0066722Y0037124D01*
X0067809Y0036780D01*
X0068905Y0036463D01*
X0070008Y0036172D01*
X0071117Y0035909D01*
X0072233Y0035673D01*
X0073355Y0035465D01*
X0074481Y0035284D01*
X0075611Y0035130D01*
X0076745Y0035005D01*
X0077881Y0034907D01*
X0079020Y0034837D01*
X0080159Y0034795D01*
X0081300Y0034781D01*
X0082441Y0034795D01*
X0083580Y0034837D01*
X0084719Y0034907D01*
X0085855Y0035005D01*
X0086989Y0035130D01*
X0088119Y0035284D01*
X0089245Y0035465D01*
X0090367Y0035673D01*
X0091483Y0035909D01*
X0092592Y0036172D01*
X0093695Y0036463D01*
X0094791Y0036780D01*
X0095878Y0037124D01*
X0096957Y0037495D01*
X0098026Y0037892D01*
X0099086Y0038315D01*
X0100134Y0038764D01*
X0101171Y0039239D01*
X0102197Y0039739D01*
X0103209Y0040263D01*
X0104209Y0040813D01*
X0105195Y0041387D01*
X0106166Y0041985D01*
X0107122Y0042606D01*
X0108063Y0043251D01*
X0108988Y0043918D01*
X0109896Y0044608D01*
X0110787Y0045321D01*
X0111660Y0046054D01*
X0112515Y0046809D01*
X0113352Y0047585D01*
X0114169Y0048381D01*
X0114966Y0049197D01*
X0115743Y0050032D01*
X0116499Y0050886D01*
X0117234Y0051758D01*
X0117948Y0052648D01*
X0118639Y0053555D01*
X0119308Y0054478D01*
X0119954Y0055418D01*
X0120577Y0056374D01*
X0121177Y0057344D01*
X0121752Y0058329D01*
X0122303Y0059328D01*
X0122829Y0060340D01*
X0123331Y0061364D01*
X0123807Y0062401D01*
X0124257Y0063449D01*
X0124682Y0064507D01*
X0125081Y0065576D01*
X0125453Y0066654D01*
X0125799Y0067741D01*
X0126118Y0068836D01*
X0126410Y0069938D01*
X0126675Y0071048D01*
X0126913Y0072163D01*
X0127123Y0073285D01*
X0127306Y0074410D01*
X0127461Y0075540D01*
X0127588Y0076674D01*
X0127688Y0077810D01*
X0127760Y0078948D01*
X0127803Y0080088D01*
X0127819Y0081229D01*
X0127807Y0082369D01*
X0127767Y0083509D01*
X0127698Y0084648D01*
X0127602Y0085784D01*
X0127478Y0086918D01*
X0127327Y0088049D01*
X0127148Y0089175D01*
X0126941Y0090297D01*
X0126706Y0091413D01*
X0126445Y0092523D01*
X0126156Y0093627D01*
X0125840Y0094723D01*
X0125498Y0095811D01*
X0125129Y0096890D01*
X0124733Y0097960D01*
X0124312Y0099020D01*
X0123865Y0100069D01*
X0123392Y0101107D01*
X0122893Y0102133D01*
X0122370Y0103146D01*
X0121822Y0104147D01*
X0121250Y0105133D01*
X0120653Y0106106D01*
X0120033Y0107063D01*
X0119390Y0108005D01*
X0118724Y0108931D01*
X0118035Y0109840D01*
X0117325Y0110732D01*
X0116592Y0111606D01*
X0115839Y0112463D01*
X0115064Y0113300D01*
X0114269Y0114118D01*
X0113455Y0114917D01*
X0112621Y0115695D01*
X0111768Y0116453D01*
X0110897Y0117189D01*
X0110009Y0117904D01*
X0109102Y0118597D01*
X0108180Y0119267D01*
X0107241Y0119915D01*
X0106286Y0120539D01*
X0105317Y0121140D01*
X0104333Y0121717D01*
X0103335Y0122269D01*
X0102324Y0122797D01*
X0101300Y0123300D01*
X0101300Y0131300D01*
X0093300Y0137300D01*
X0071300Y0137300D01*
X0061300Y0131300D01*
X0061300Y0123300D01*
D11*
X0106428Y0057994D02*
X0106430Y0058074D01*
X0106436Y0058153D01*
X0106446Y0058232D01*
X0106460Y0058311D01*
X0106477Y0058389D01*
X0106499Y0058466D01*
X0106524Y0058541D01*
X0106554Y0058615D01*
X0106586Y0058688D01*
X0106623Y0058759D01*
X0106663Y0058828D01*
X0106706Y0058895D01*
X0106753Y0058960D01*
X0106802Y0059022D01*
X0106855Y0059082D01*
X0106911Y0059139D01*
X0106969Y0059194D01*
X0107030Y0059245D01*
X0107094Y0059293D01*
X0107160Y0059338D01*
X0107228Y0059380D01*
X0107298Y0059418D01*
X0107370Y0059452D01*
X0107443Y0059483D01*
X0107518Y0059511D01*
X0107595Y0059534D01*
X0107672Y0059554D01*
X0107750Y0059570D01*
X0107829Y0059582D01*
X0107908Y0059590D01*
X0107988Y0059594D01*
X0108068Y0059594D01*
X0108148Y0059590D01*
X0108227Y0059582D01*
X0108306Y0059570D01*
X0108384Y0059554D01*
X0108461Y0059534D01*
X0108538Y0059511D01*
X0108613Y0059483D01*
X0108686Y0059452D01*
X0108758Y0059418D01*
X0108828Y0059380D01*
X0108896Y0059338D01*
X0108962Y0059293D01*
X0109026Y0059245D01*
X0109087Y0059194D01*
X0109145Y0059139D01*
X0109201Y0059082D01*
X0109254Y0059022D01*
X0109303Y0058960D01*
X0109350Y0058895D01*
X0109393Y0058828D01*
X0109433Y0058759D01*
X0109470Y0058688D01*
X0109502Y0058615D01*
X0109532Y0058541D01*
X0109557Y0058466D01*
X0109579Y0058389D01*
X0109596Y0058311D01*
X0109610Y0058232D01*
X0109620Y0058153D01*
X0109626Y0058074D01*
X0109628Y0057994D01*
X0109626Y0057914D01*
X0109620Y0057835D01*
X0109610Y0057756D01*
X0109596Y0057677D01*
X0109579Y0057599D01*
X0109557Y0057522D01*
X0109532Y0057447D01*
X0109502Y0057373D01*
X0109470Y0057300D01*
X0109433Y0057229D01*
X0109393Y0057160D01*
X0109350Y0057093D01*
X0109303Y0057028D01*
X0109254Y0056966D01*
X0109201Y0056906D01*
X0109145Y0056849D01*
X0109087Y0056794D01*
X0109026Y0056743D01*
X0108962Y0056695D01*
X0108896Y0056650D01*
X0108828Y0056608D01*
X0108758Y0056570D01*
X0108686Y0056536D01*
X0108613Y0056505D01*
X0108538Y0056477D01*
X0108461Y0056454D01*
X0108384Y0056434D01*
X0108306Y0056418D01*
X0108227Y0056406D01*
X0108148Y0056398D01*
X0108068Y0056394D01*
X0107988Y0056394D01*
X0107908Y0056398D01*
X0107829Y0056406D01*
X0107750Y0056418D01*
X0107672Y0056434D01*
X0107595Y0056454D01*
X0107518Y0056477D01*
X0107443Y0056505D01*
X0107370Y0056536D01*
X0107298Y0056570D01*
X0107228Y0056608D01*
X0107160Y0056650D01*
X0107094Y0056695D01*
X0107030Y0056743D01*
X0106969Y0056794D01*
X0106911Y0056849D01*
X0106855Y0056906D01*
X0106802Y0056966D01*
X0106753Y0057028D01*
X0106706Y0057093D01*
X0106663Y0057160D01*
X0106623Y0057229D01*
X0106586Y0057300D01*
X0106554Y0057373D01*
X0106524Y0057447D01*
X0106499Y0057522D01*
X0106477Y0057599D01*
X0106460Y0057677D01*
X0106446Y0057756D01*
X0106436Y0057835D01*
X0106430Y0057914D01*
X0106428Y0057994D01*
X0096972Y0050606D02*
X0096974Y0050686D01*
X0096980Y0050765D01*
X0096990Y0050844D01*
X0097004Y0050923D01*
X0097021Y0051001D01*
X0097043Y0051078D01*
X0097068Y0051153D01*
X0097098Y0051227D01*
X0097130Y0051300D01*
X0097167Y0051371D01*
X0097207Y0051440D01*
X0097250Y0051507D01*
X0097297Y0051572D01*
X0097346Y0051634D01*
X0097399Y0051694D01*
X0097455Y0051751D01*
X0097513Y0051806D01*
X0097574Y0051857D01*
X0097638Y0051905D01*
X0097704Y0051950D01*
X0097772Y0051992D01*
X0097842Y0052030D01*
X0097914Y0052064D01*
X0097987Y0052095D01*
X0098062Y0052123D01*
X0098139Y0052146D01*
X0098216Y0052166D01*
X0098294Y0052182D01*
X0098373Y0052194D01*
X0098452Y0052202D01*
X0098532Y0052206D01*
X0098612Y0052206D01*
X0098692Y0052202D01*
X0098771Y0052194D01*
X0098850Y0052182D01*
X0098928Y0052166D01*
X0099005Y0052146D01*
X0099082Y0052123D01*
X0099157Y0052095D01*
X0099230Y0052064D01*
X0099302Y0052030D01*
X0099372Y0051992D01*
X0099440Y0051950D01*
X0099506Y0051905D01*
X0099570Y0051857D01*
X0099631Y0051806D01*
X0099689Y0051751D01*
X0099745Y0051694D01*
X0099798Y0051634D01*
X0099847Y0051572D01*
X0099894Y0051507D01*
X0099937Y0051440D01*
X0099977Y0051371D01*
X0100014Y0051300D01*
X0100046Y0051227D01*
X0100076Y0051153D01*
X0100101Y0051078D01*
X0100123Y0051001D01*
X0100140Y0050923D01*
X0100154Y0050844D01*
X0100164Y0050765D01*
X0100170Y0050686D01*
X0100172Y0050606D01*
X0100170Y0050526D01*
X0100164Y0050447D01*
X0100154Y0050368D01*
X0100140Y0050289D01*
X0100123Y0050211D01*
X0100101Y0050134D01*
X0100076Y0050059D01*
X0100046Y0049985D01*
X0100014Y0049912D01*
X0099977Y0049841D01*
X0099937Y0049772D01*
X0099894Y0049705D01*
X0099847Y0049640D01*
X0099798Y0049578D01*
X0099745Y0049518D01*
X0099689Y0049461D01*
X0099631Y0049406D01*
X0099570Y0049355D01*
X0099506Y0049307D01*
X0099440Y0049262D01*
X0099372Y0049220D01*
X0099302Y0049182D01*
X0099230Y0049148D01*
X0099157Y0049117D01*
X0099082Y0049089D01*
X0099005Y0049066D01*
X0098928Y0049046D01*
X0098850Y0049030D01*
X0098771Y0049018D01*
X0098692Y0049010D01*
X0098612Y0049006D01*
X0098532Y0049006D01*
X0098452Y0049010D01*
X0098373Y0049018D01*
X0098294Y0049030D01*
X0098216Y0049046D01*
X0098139Y0049066D01*
X0098062Y0049089D01*
X0097987Y0049117D01*
X0097914Y0049148D01*
X0097842Y0049182D01*
X0097772Y0049220D01*
X0097704Y0049262D01*
X0097638Y0049307D01*
X0097574Y0049355D01*
X0097513Y0049406D01*
X0097455Y0049461D01*
X0097399Y0049518D01*
X0097346Y0049578D01*
X0097297Y0049640D01*
X0097250Y0049705D01*
X0097207Y0049772D01*
X0097167Y0049841D01*
X0097130Y0049912D01*
X0097098Y0049985D01*
X0097068Y0050059D01*
X0097043Y0050134D01*
X0097021Y0050211D01*
X0097004Y0050289D01*
X0096990Y0050368D01*
X0096980Y0050447D01*
X0096974Y0050526D01*
X0096972Y0050606D01*
M02*
